<svg xmlns="http://www.w3.org/2000/svg" xmlns:xlink="http://www.w3.org/1999/xlink" xmlns:lucid="lucid" width="1970.04" height="1189.7"><g transform="translate(-1438 -739.5)" lucid:page-tab-id=".Q4MUjXso07N"><path d="M1000 500h2500v1500H1000z" fill="#fff"/><path d="M1522.77 1445.06c0 10.9-8.85 19.75-19.75 19.75s-19.75-8.84-19.75-19.74c0-10.9 8.84-19.75 19.75-19.75 10.9 0 19.75 8.85 19.75 19.76z" stroke="#333" stroke-width="4" fill="#fff"/><path d="M1503.02 1464.8v49.3a19.48 19.48 0 0 0 3.37 10.97l39.64 58.24m-43.02-63.2l-43.02 63.2m0-98.74h86.04" stroke="#333" stroke-width="4" fill="none"/><path d="M1460 1431.3a6 6 0 0 1 6-6h74.04a6 6 0 0 1 6 6v168a6 6 0 0 1-6 6H1466a6 6 0 0 1-6-6z" fill="none"/><path d="M3362.77 1445.06c0 10.9-8.84 19.75-19.75 19.75-10.9 0-19.75-8.84-19.75-19.74 0-10.9 8.84-19.75 19.75-19.75 10.9 0 19.75 8.85 19.75 19.76z" stroke="#333" stroke-width="4" fill="#fff"/><path d="M3343.02 1464.8v49.3a19.48 19.48 0 0 0 3.37 10.97l39.64 58.24m-43.02-63.2l-43.02 63.2m0-98.74h86.04" stroke="#333" stroke-width="4" fill="none"/><path d="M3300 1431.3a6 6 0 0 1 6-6h74.04a6 6 0 0 1 6 6v168a6 6 0 0 1-6 6H3306a6 6 0 0 1-6-6z" fill="none"/><path d="M1631.83 1457.05a10.95 10.95 0 0 1 12.92 0l91.78 67.05a5.84 5.84 0 0 1 0 9.44l-91.78 67.05a10.95 10.95 0 0 1-12.92 0l-91.78-67.06a5.84 5.84 0 0 1 0-9.44z" stroke="#000" fill="#00c2a8"/><use xlink:href="#a" transform="matrix(1,0,0,1,1585.9430202912645,1490.5743712134836) translate(24.549999999999997 42.1)"/><path d="M2150.9 1362.4a8 8 0 0 1 8-8h174.34a8 8 0 0 1 8 8v38.4a8 8 0 0 1-8 8H2158.9a8 8 0 0 1-8-8z" stroke="#000" fill="#4d9eff"/><use xlink:href="#b" transform="matrix(1,0,0,1,2170.889213065368,1354.4045858857442) translate(17.099999999999994 31.1)"/><use xlink:href="#c" transform="matrix(1,0,0,1,2170.889213065368,1354.4045858857442) translate(76 31.1)"/><path d="M2150.9 1308a8 8 0 0 1 8-8h174.34a8 8 0 0 1 8 8v38.4a8 8 0 0 1-8 8H2158.9a8 8 0 0 1-8-8z" stroke="#000" fill="#4d9eff"/><use xlink:href="#d" transform="matrix(1,0,0,1,2170.889213065368,1300) translate(15.074999999999996 31.1)"/><use xlink:href="#c" transform="matrix(1,0,0,1,2170.889213065368,1300) translate(78.025 31.1)"/><path d="M2150.9 1418.15a8 8 0 0 1 8-8h174.34a8 8 0 0 1 8 8v38.4a8 8 0 0 1-8 8H2158.9a8 8 0 0 1-8-8z" stroke="#000" fill="#4d9eff"/><use xlink:href="#e" transform="matrix(1,0,0,1,2170.889213065368,1410.1524300781448) translate(18.099999999999994 31.1)"/><use xlink:href="#c" transform="matrix(1,0,0,1,2170.889213065368,1410.1524300781448) translate(75 31.1)"/><path d="M2150.9 1716.8a8 8 0 0 1 8-8h475.24a8 8 0 0 1 8 8V1755a8 8 0 0 1-8 8H2158.9a8 8 0 0 1-8-8z" stroke="#000" fill="#4d9eff"/><use xlink:href="#f" transform="matrix(1,0,0,1,2170.889213065368,1708.7846715328053) translate(138.85 31.1)"/><use xlink:href="#g" transform="matrix(1,0,0,1,2170.889213065368,1708.7846715328053) translate(182.4 31.1)"/><use xlink:href="#h" transform="matrix(1,0,0,1,2170.889213065368,1708.7846715328053) translate(245.3 31.1)"/><path d="M2153.6 1581.2a8 8 0 0 1 8-8h171.64a8 8 0 0 1 8 8v34.4a8 8 0 0 1-8 8H2161.6a8 8 0 0 1-8-8z" stroke="#000" fill="#4d9eff"/><use xlink:href="#i" transform="matrix(1,0,0,1,2173.592808710245,1573.1908282285117) translate(28.025 18.299999999999997)"/><use xlink:href="#j" transform="matrix(1,0,0,1,2173.592808710245,1573.1908282285117) translate(104.975 18.299999999999997)"/><use xlink:href="#h" transform="matrix(1,0,0,1,2173.592808710245,1573.1908282285117) translate(40.074999999999996 39.9)"/><path d="M2153.6 1210.83a8 8 0 0 1 8-8h174.34a8 8 0 0 1 8 8v46.78a8 8 0 0 1-8 8H2161.6a8 8 0 0 1-8-8z" stroke="#000" fill="#4d9eff"/><use xlink:href="#f" transform="matrix(1,0,0,1,2173.592808710245,1202.8336766967286) translate(24.77499999999999 24.299999999999997)"/><use xlink:href="#k" transform="matrix(1,0,0,1,2173.592808710245,1202.8336766967286) translate(68.32499999999999 24.299999999999997)"/><use xlink:href="#l" transform="matrix(1,0,0,1,2173.592808710245,1202.8336766967286) translate(28.099999999999994 45.9)"/><path d="M2153.6 1503a8 8 0 0 1 8-8h174.34a8 8 0 0 1 8 8v38.4a8 8 0 0 1-8 8H2161.6a8 8 0 0 1-8-8z" stroke="#000" fill="#4d9eff"/><use xlink:href="#m" transform="matrix(1,0,0,1,2173.592808710245,1495) translate(4.574999999999989 31.1)"/><use xlink:href="#n" transform="matrix(1,0,0,1,2173.592808710245,1495) translate(51.57499999999999 31.1)"/><path d="M2153.6 1135.37a8 8 0 0 1 8-8h174.34a8 8 0 0 1 8 8v38.24a8 8 0 0 1-8 8H2161.6a8 8 0 0 1-8-8z" stroke="#000" fill="#4d9eff"/><use xlink:href="#f" transform="matrix(1,0,0,1,2173.592808710245,1127.3707326268309) translate(24.77499999999999 20.299999999999997)"/><use xlink:href="#k" transform="matrix(1,0,0,1,2173.592808710245,1127.3707326268309) translate(68.32499999999999 20.299999999999997)"/><use xlink:href="#o" transform="matrix(1,0,0,1,2173.592808710245,1127.3707326268309) translate(39.55 41.9)"/><path d="M1638.3 1603.7l.2 9.06.53 8.64.83 7.87 1.06 7.2 1.27 6.67 1.44 6.18 1.6 5.78 1.77 5.42 1.9 5.1 2.04 4.86 2.17 4.6 2.32 4.42 2.44 4.23 2.6 4.08 2.73 3.95 2.9 3.83 3.08 3.72 3.28 3.65 3.5 3.57 3.74 3.52 4.02 3.46 4.34 3.44 4.7 3.4 5.1 3.4 5.6 3.4 6.2 3.4 6.9 3.4 7.73 3.45 8.8 3.48 10.18 3.54 12 3.6 14.5 3.73 18.32 3.87 24.83 4.17 40.75 5.04 173.8 17.53 32.68 5.5 25.58 5.4 21.3 5.47 18.32 5.52 12.42 4.32" stroke="#333" stroke-linejoin="round" fill="none"/><path d="M1638.3 1603.2l.47-.03v.54l-.94.03v-.56z" stroke="#333" stroke-width=".05" fill="#333"/><path d="M2151.58 1813.83l-14.98-.74 3.3-8.67z" stroke="#333" fill="#333"/><path d="M1638.3 1453.93l.2-9.93.62-9.7.95-9.06 1.25-8.5 1.53-8.03 1.8-7.6 2-7.24 2.25-6.9 2.47-6.64 2.68-6.4 2.9-6.15 3.13-5.98 3.35-5.82 3.6-5.66 3.85-5.55 4.13-5.44 4.44-5.35 4.75-5.28 5.1-5.22 5.53-5.18 5.97-5.15 6.48-5.13 7.05-5.13 7.7-5.13 8.5-5.13 9.36-5.15 10.4-5.17 11.65-5.18 13.15-5.2 14.97-5.2 17.24-5.2 20.1-5.15 23.87-5.06 28.95-4.87 36.32-4.56 48.33-4 74.76-2.97 97.08-.6" stroke="#333" stroke-linejoin="round" fill="none"/><path d="M1638.78 1453.93v.54l-.5-.03-.46.03v-.56z" stroke="#333" stroke-width=".05" fill="#333"/><path d="M2151.47 1234.23l-14.23 4.72-.06-9.27z" stroke="#333" fill="#333"/><path d="M1638.3 1603.7l.33 15.77.92 14.68 1.4 13.33 1.8 12.17 2.12 11.2 2.42 10.32 2.66 9.6 2.9 8.92 3.1 8.36 3.32 7.85 3.48 7.42 3.67 7.02 3.84 6.66 4.03 6.35 4.2 6.06 4.42 5.8 4.6 5.6 4.84 5.35 5.06 5.17 5.32 5 5.6 4.83 5.9 4.68 6.26 4.54 6.62 4.4 7.04 4.26 7.52 4.13 8.04 4 8.65 3.84 9.34 3.7 10.13 3.5 11.02 3.34 4.17 1.13 13.2 3.17 16.63 3.26 22.7 3.46 38.3 4.16 139.95 12.38 27.67 4.22 21.23 4.17 17.44 4.18 14.85 4.23 12.94 4.3 11.5 4.35 10.3 4.4 1.9.9" stroke="#333" stroke-linejoin="round" fill="none"/><path d="M1638.3 1603.2l.47-.03v.53l-.94.02v-.55z" stroke="#333" stroke-width=".05" fill="#333"/><path d="M2154.85 1886.48l-14.83-2.25 4.15-8.3z" stroke="#333" fill="#333"/><path d="M1739.94 1528.8l16.54-.33 15.36-.96 14.02-1.46 12.95-1.9 12.1-2.32 11.42-2.67 10.93-3.06 10.6-3.44 10.4-3.88 10.4-4.37 10.66-5 11.25-5.9 12.5-7.22 15.58-9.9 76.14-52.24 12.5-7.23 11.25-5.87 10.64-5 10.4-4.4 10.42-3.86 10.6-3.44 10.92-3.05 11.42-2.68 12.1-2.3 12.94-1.9 14.02-1.48 15.36-.96.67-.02" stroke="#333" stroke-linejoin="round" fill="none"/><path d="M1739.96 1529.28l-.57.02.03-.48-.04-.47.54-.02z" stroke="#333" stroke-width=".05" fill="#333"/><path d="M2148.77 1381.64l-14.17 4.93-.2-9.27z" stroke="#333" fill="#333"/><path d="M1739.94 1528.8l26.06-.52 22.62-1.4 19.8-2.1 17.72-2.6 16.33-3.1 15.47-3.64 15.2-4.24 15.73-5.12 18.05-6.73 94.04-39.26 15.73-5.13 15.2-4.24 15.45-3.63 16.33-3.1 17.74-2.62 19.78-2.07 22.62-1.4 10.2-.2" stroke="#333" stroke-linejoin="round" fill="none"/><path d="M1739.96 1529.28l-.57.02.03-.48-.04-.47.54-.02z" stroke="#333" stroke-width=".05" fill="#333"/><path d="M2148.77 1437.4l-14.17 4.9-.2-9.26z" stroke="#333" fill="#333"/><path d="M1739.94 1528.8l12.13-.24 11.7-.74 10.92-1.14 10.26-1.52 9.75-1.86 9.33-2.18 8.97-2.5 8.7-2.83 8.52-3.18 8.4-3.53 8.37-3.95 8.42-4.4 8.6-4.98 8.94-5.67 9.5-6.6 10.42-7.93 12.22-10.13 16.82-15.2 62.8-59.66 12.22-10.13 10.44-7.93 9.48-6.6 8.94-5.67 8.6-4.97 8.43-4.4 8.38-3.95 8.4-3.53 8.52-3.17 8.7-2.83 8.97-2.5 9.3-2.18 9.76-1.86 10.28-1.52 10.92-1.14 7.95-.5" stroke="#333" stroke-linejoin="round" fill="none"/><path d="M1739.96 1529.28l-.57.02.03-.48-.04-.47.54-.02z" stroke="#333" stroke-width=".05" fill="#333"/><path d="M2148.77 1327.25l-14.12 5.07-.28-9.27z" stroke="#333" fill="#333"/><path d="M1638.3 1453.93l.25-12.04.75-11.87 1.18-11.27 1.6-10.74 1.95-10.3 2.32-9.88 2.66-9.53 3-9.2 3.33-8.96 3.66-8.7 4-8.5 4.35-8.34 4.72-8.18 5.1-8.05 5.54-7.95 5.98-7.87 6.46-7.8 6.98-7.76 7.57-7.74 8.2-7.7 8.95-7.72 9.75-7.72 10.66-7.74 11.7-7.77 12.86-7.78 14.22-7.8 15.78-7.84 17.57-7.82 19.65-7.77 22.1-7.7 24.93-7.5 28.25-7.26 32.12-6.8 36.58-6.18 41.65-5.24 47.2-3.94 52.86-2.2 11.97-.12" stroke="#333" stroke-linejoin="round" fill="none"/><path d="M1638.78 1453.93v.54l-.5-.03-.46.03v-.56z" stroke="#333" stroke-width=".05" fill="#333"/><path d="M2151.47 1154.5l-14.2 4.8-.1-9.28z" stroke="#333" fill="#333"/><path d="M1638.3 1603.7l.18 8.46.5 8.15.8 7.47 1 6.88 1.22 6.38 1.4 5.94 1.55 5.56 1.7 5.24 1.83 4.94 1.98 4.7 2.1 4.48 2.23 4.27 2.36 4.1 2.5 3.95 2.66 3.8 2.8 3.7 2.97 3.6 3.14 3.5 3.35 3.4 3.55 3.36 3.8 3.28 4.1 3.23 4.37 3.2 4.73 3.13 5.13 3.1 5.58 3.07 6.12 3.03 6.74 3 7.48 2.96 8.37 2.9 9.45 2.86 10.8 2.77 12.47 2.63 14.65 2.47 17.6 2.22 21.8 1.8 28.22 1.16 40.05-.06 79.85-3.66 159.9-9.03 4.64-.05" stroke="#333" stroke-linejoin="round" fill="none"/><path d="M1638.3 1603.2l.47-.03v.54l-.94.03v-.56z" stroke="#333" stroke-width=".05" fill="#333"/><path d="M2148.77 1739.4l-14.2 4.8-.1-9.26z" stroke="#333" fill="#333"/><path d="M1739.94 1528.83l33.95.68 28.1 1.76 23.93 2.5 21.26 3.14 19.84 3.8 19.84 4.64 22.68 6.36 96.1 30.17 19.82 4.66 19.85 3.8 21.27 3.12 23.93 2.5 28.1 1.75 18.08.37" stroke="#333" stroke-linejoin="round" fill="none"/><path d="M1739.96 1528.35l-.02.95h-.55l.03-.48-.04-.48z" stroke="#333" stroke-width=".05" fill="#333"/><path d="M2151.47 1598.37l-14.35 4.34.2-9.26z" stroke="#333" fill="#333"/><path d="M2150.9 1633a8 8 0 0 1 8-8h477.94a8 8 0 0 1 8 8v42.98a8 8 0 0 1-8 8H2158.9a8 8 0 0 1-8-8z" stroke="#000" fill="#4d9eff"/><use xlink:href="#f" transform="matrix(1,0,0,1,2170.8892130653676,1625) translate(139.85 33.1)"/><use xlink:href="#g" transform="matrix(1,0,0,1,2170.8892130653676,1625) translate(183.4 33.1)"/><use xlink:href="#h" transform="matrix(1,0,0,1,2170.8892130653676,1625) translate(246.3 33.1)"/><path d="M3215.65 1450.44a9.57 9.57 0 0 1 12.28 0l83.47 69.74a6.68 6.68 0 0 1 0 10.26l-83.47 69.74a9.57 9.57 0 0 1-12.28 0l-83.47-69.74a6.68 6.68 0 0 1 0-10.26z" stroke="#000" fill="#00c2a8"/><use xlink:href="#p" transform="matrix(1,0,0,1,3173.9124508086047,1485.3073616343659) translate(17 44.1)"/><path d="M2480 1009.23a8 8 0 0 1 8-8h149.84a8 8 0 0 1 8 8v38.23a8 8 0 0 1-8 8H2488a8 8 0 0 1-8-8z" stroke="#000" fill="#4d9eff"/><use xlink:href="#q" transform="matrix(1,0,0,1,2500,1001.2289034866134) translate(5.549999999999997 20.299999999999997)"/><use xlink:href="#g" transform="matrix(1,0,0,1,2500,1001.2289034866134) translate(42.55 20.299999999999997)"/><use xlink:href="#j" transform="matrix(1,0,0,1,2500,1001.2289034866134) translate(105.45 20.299999999999997)"/><use xlink:href="#r" transform="matrix(1,0,0,1,2500,1001.2289034866134) translate(26.074999999999996 41.9)"/><path d="M2480 1063.46a8 8 0 0 1 8-8h149.84a8 8 0 0 1 8 8v74.34a8 8 0 0 1-8 8H2488a8 8 0 0 1-8-8z" stroke="#000" fill="#4d9eff"/><use xlink:href="#s" transform="matrix(1,0,0,1,2500,1055.465049688399) translate(29.549999999999997 27.5)"/><use xlink:href="#g" transform="matrix(1,0,0,1,2500,1055.465049688399) translate(13.599999999999994 49.1)"/><use xlink:href="#t" transform="matrix(1,0,0,1,2500,1055.465049688399) translate(76.5 49.1)"/><use xlink:href="#r" transform="matrix(1,0,0,1,2500,1055.465049688399) translate(26.074999999999996 70.7)"/><path d="M2480 848a8 8 0 0 1 8-8h149.84a8 8 0 0 1 8 8v38.24a8 8 0 0 1-8 8H2488a8 8 0 0 1-8-8z" stroke="#000" fill="#4d9eff"/><use xlink:href="#q" transform="matrix(1,0,0,1,2500.0000000000005,840) translate(5.549999999999997 20.299999999999997)"/><use xlink:href="#g" transform="matrix(1,0,0,1,2500.0000000000005,840) translate(42.55 20.299999999999997)"/><use xlink:href="#j" transform="matrix(1,0,0,1,2500.0000000000005,840) translate(105.45 20.299999999999997)"/><use xlink:href="#u" transform="matrix(1,0,0,1,2500.0000000000005,840) translate(46.05 41.9)"/><path d="M2480 910.24a8 8 0 0 1 8-8h149.84a8 8 0 0 1 8 8v57.55a8 8 0 0 1-8 8H2488a8 8 0 0 1-8-8z" stroke="#000" fill="#4d9eff"/><use xlink:href="#s" transform="matrix(1,0,0,1,2500.0000000000005,902.2361462017853) translate(29.549999999999997 19)"/><use xlink:href="#g" transform="matrix(1,0,0,1,2500.0000000000005,902.2361462017853) translate(13.599999999999994 40.6)"/><use xlink:href="#t" transform="matrix(1,0,0,1,2500.0000000000005,902.2361462017853) translate(76.5 40.6)"/><use xlink:href="#u" transform="matrix(1,0,0,1,2500.0000000000005,902.2361462017853) translate(46.05 62.2)"/><path d="M2900 1188a8 8 0 0 1 8-8h149.84a8 8 0 0 1 8 8v38.24a8 8 0 0 1-8 8H2908a8 8 0 0 1-8-8z" stroke="#000" fill="#4d9eff"/><use xlink:href="#v" transform="matrix(1,0,0,1,2920,1180) translate(11.049999999999997 31.1)"/><use xlink:href="#c" transform="matrix(1,0,0,1,2920,1180) translate(57.05 31.1)"/><path d="M2480 1176a8 8 0 0 1 8-8h149.84a8 8 0 0 1 8 8v38.24a8 8 0 0 1-8 8H2488a8 8 0 0 1-8-8z" stroke="#000" fill="#4d9eff"/><use xlink:href="#w" transform="matrix(1,0,0,1,2500,1168) translate(30.599999999999994 20.299999999999997)"/><use xlink:href="#x" transform="matrix(1,0,0,1,2500,1168) translate(81.45 20.299999999999997)"/><use xlink:href="#c" transform="matrix(1,0,0,1,2500,1168) translate(34.05 41.9)"/><path d="M2480 1232a8 8 0 0 1 8-8h149.84a8 8 0 0 1 8 8v38.24a8 8 0 0 1-8 8H2488a8 8 0 0 1-8-8z" stroke="#000" fill="#4d9eff"/><use xlink:href="#y" transform="matrix(1,0,0,1,2500.000000000001,1224) translate(1.5999999999999943 31.1)"/><use xlink:href="#c" transform="matrix(1,0,0,1,2500.000000000001,1224) translate(66.5 31.1)"/><path d="M2480 1521a8 8 0 0 1 8-8h149.84a8 8 0 0 1 8 8v38.24a8 8 0 0 1-8 8H2488a8 8 0 0 1-8-8z" stroke="#000" fill="#4d9eff"/><use xlink:href="#b" transform="matrix(1,0,0,1,2500,1513) translate(4.124999999999993 31.1)"/><use xlink:href="#z" transform="matrix(1,0,0,1,2500,1513) translate(63.025 31.1)"/><path d="M2480 1576.88a8 8 0 0 1 8-8h149.84a8 8 0 0 1 8 8v38.24a8 8 0 0 1-8 8H2488a8 8 0 0 1-8-8z" stroke="#000" fill="#4d9eff"/><use xlink:href="#A" transform="matrix(1,0,0,1,2500,1568.8819268991078) translate(15.599999999999994 31.1)"/><use xlink:href="#z" transform="matrix(1,0,0,1,2500,1568.8819268991078) translate(51.55 31.1)"/><path d="M2480 1465a8 8 0 0 1 8-8h149.84a8 8 0 0 1 8 8v38.24a8 8 0 0 1-8 8H2488a8 8 0 0 1-8-8z" stroke="#000" fill="#4d9eff"/><use xlink:href="#e" transform="matrix(1,0,0,1,2500,1457) translate(5.124999999999993 31.1)"/><use xlink:href="#z" transform="matrix(1,0,0,1,2500,1457) translate(62.025 31.1)"/><path d="M2480 1376a8 8 0 0 1 8-8h149.84a8 8 0 0 1 8 8v38.24a8 8 0 0 1-8 8H2488a8 8 0 0 1-8-8z" stroke="#000" fill="#4d9eff"/><use xlink:href="#f" transform="matrix(1,0,0,1,2500,1368) translate(12.274999999999991 20.299999999999997)"/><use xlink:href="#k" transform="matrix(1,0,0,1,2500,1368) translate(55.824999999999996 20.299999999999997)"/><use xlink:href="#B" transform="matrix(1,0,0,1,2500,1368) translate(27.049999999999997 41.9)"/><path d="M2900 1248a8 8 0 0 1 8-8h149.84a8 8 0 0 1 8 8v38.24a8 8 0 0 1-8 8H2908a8 8 0 0 1-8-8z" stroke="#000" fill="#4d9eff"/><use xlink:href="#C" transform="matrix(1,0,0,1,2920,1240) translate(15.075000000000003 31.1)"/><use xlink:href="#D" transform="matrix(1,0,0,1,2920,1240) translate(72.975 31.1)"/><path d="M2150.9 1788a8 8 0 0 1 8-8h478.94a8 8 0 0 1 8 8v38.24a8 8 0 0 1-8 8H2158.9a8 8 0 0 1-8-8z" stroke="#000" fill="#4d9eff"/><use xlink:href="#m" transform="matrix(1,0,0,1,2170.889213065368,1780) translate(167.525 31.1)"/><use xlink:href="#E" transform="matrix(1,0,0,1,2170.889213065368,1780) translate(214.525 31.1)"/><path d="M2480 1304a8 8 0 0 1 8-8h149.84a8 8 0 0 1 8 8v38.24a8 8 0 0 1-8 8H2488a8 8 0 0 1-8-8z" stroke="#000" fill="#4d9eff"/><use xlink:href="#F" transform="matrix(1,0,0,1,2500,1296) translate(43.724999999999994 20.299999999999997)"/><use xlink:href="#G" transform="matrix(1,0,0,1,2500,1296) translate(18.099999999999994 41.9)"/><path d="M2647.34 1195.14l10.3.2m10.3.58l2.9.18 10.27 1.08 7.33 1.08m10.15 1.84l.5.1 8.12 1.9 7.8 2.18 3.5 1.13m9.72 3.44l2.1.8 8.1 3.4 8.68 4.08m9.14 4.77l4.22 2.2 13.9 7.65m9.03 4.97l14.83 8.16 3.34 1.57m9.4 4.25l4.54 1.9 7.7 2.88 7.12 2.3m9.94 2.74l6.5 1.52 8.64 1.64 5.1.76m10.23 1.25l4.26.43 6 .38" stroke="#333" stroke-width="2" stroke-linejoin="round" fill="none"/><path d="M2647.4 1194.16l-.05 1.95h-1v-1.96z" stroke="#333" stroke-width=".05" fill="#333"/><path d="M2896.27 1267l-14.4 4.18.3-9.27z" stroke="#333" stroke-width="2" fill="#333"/><path d="M2480 849.33a8 8 0 0 1 8-8h149.85a8 8 0 0 1 8 8v38.23a8 8 0 0 1-8 8H2488a8 8 0 0 1-8-8z" stroke="#000" fill="#4d9eff"/><use xlink:href="#f" transform="matrix(1,0,0,1,2500.0048649960663,841.3266236879863) translate(6.799999999999997 20.299999999999997)"/><use xlink:href="#H" transform="matrix(1,0,0,1,2500.0048649960663,841.3266236879863) translate(50.35 20.299999999999997)"/><use xlink:href="#I" transform="matrix(1,0,0,1,2500.0048649960663,841.3266236879863) translate(31.525 41.9)"/><path d="M2479 768a8 8 0 0 1 8-8h149.84a8 8 0 0 1 8 8v38.24a8 8 0 0 1-8 8H2487a8 8 0 0 1-8-8z" stroke="#000" fill="#4d9eff"/><use xlink:href="#J" transform="matrix(1,0,0,1,2499,760) translate(3.9499999999999957 20.299999999999997)"/><use xlink:href="#H" transform="matrix(1,0,0,1,2499,760) translate(53.199999999999996 20.299999999999997)"/><use xlink:href="#K" transform="matrix(1,0,0,1,2499,760) translate(36.025 41.9)"/><path d="M2960 849.33a8 8 0 0 1 8-8h149.84a8 8 0 0 1 8 8v38.23a8 8 0 0 1-8 8H2968a8 8 0 0 1-8-8z" stroke="#000" fill="#4d9eff"/><use xlink:href="#f" transform="matrix(1,0,0,1,2980,841.3266236879863) translate(6.75 31.1)"/><use xlink:href="#L" transform="matrix(1,0,0,1,2980,841.3266236879863) translate(50.300000000000004 31.1)"/><path d="M2150.9 1859.2a8 8 0 0 1 8-8h478.94a8 8 0 0 1 8 8v38.25a8 8 0 0 1-8 8H2158.9a8 8 0 0 1-8-8z" stroke="#000" fill="#4d9eff"/><use xlink:href="#f" transform="matrix(1,0,0,1,2170.8892130653344,1851.2153284671947) translate(181.3 31.1)"/><use xlink:href="#M" transform="matrix(1,0,0,1,2170.8892130653344,1851.2153284671947) translate(224.85000000000002 31.1)"/><path d="M2899 1200.97l-4.95-.1m-4.94-.1l-9.87-.17m-4.94-.1l-9.9-.18m-4.93-.1l-9.88-.18m-4.95-.1l-5.07-.1-4.8-.3m-4.94-.3l-9.87-.62m-4.93-.3l-9.86-.64m-4.93-.3l-3.5-.23-6.36-.5m-4.94-.38l-9.85-.77m-4.92-.38l-9.85-.77m-4.93-.38l-9.85-.77m-4.93-.38l-9.86-.77m-4.92-.38l-9.86-.77m-4.92-.38l-5.3-.42-4.57-.08m-4.95-.1l-9.88-.18m-4.94-.1l-4.94-.1" stroke="#333" stroke-linejoin="round" fill="none"/><path d="M2899.5 1200.5v.95h-.53l.02-.96z" stroke="#333" stroke-width=".05" fill="#333"/><path d="M2647.96 1189l28.7-8.72-.35 18.53z" stroke="#333" fill="#333"/><path d="M2959 868.45h-4.95m-4.95 0h-9.9m-4.94 0h-9.9m-4.94 0h-9.9m-4.95 0h-9.9m-4.94 0h-9.9m-4.94 0h-9.9m-4.95 0h-9.9m-4.94 0h-9.9m-4.94 0h-9.9m-4.94 0h-9.9m-4.94 0h-9.9m-4.94 0h-9.9m-4.95 0h-9.9m-4.95 0h-9.9m-4.94 0h-9.88m-4.95 0h-9.9m-4.94 0h-9.9m-4.95 0h-9.9m-4.94 0H2677" stroke="#333" stroke-linejoin="round" fill="none"/><path d="M2959.5 868.92h-.52v-.95h.52z" stroke="#333" stroke-width=".05" fill="#333"/><path d="M2647.96 868.45l28.53-9.28v18.55z" stroke="#333" fill="#333"/><path d="M1739.94 1528.8l396.77-6.34" stroke="#333" stroke-linejoin="round" fill="none"/><path d="M1739.96 1529.3h-.57l.03-.48-.04-.48h.54z" stroke="#333" stroke-width=".05" fill="#333"/><path d="M2151.47 1522.23l-14.18 4.86-.16-9.28z" stroke="#333" fill="#333"/><path d="M3221.78 1603.4l-.25 11.85-.72 11.54-1.13 10.83-1.5 10.23-1.86 9.7-2.15 9.25-2.47 8.84-2.75 8.48-3.04 8.16-3.32 7.9-3.6 7.64-3.9 7.44-4.2 7.26-4.5 7.1-4.85 7-5.2 6.86-5.62 6.78-6.04 6.7-6.52 6.67-7.06 6.63-7.65 6.6-8.33 6.6-9.1 6.6-9.97 6.63-11 6.63-12.15 6.7-13.55 6.7-15.2 6.76-17.15 6.78-19.55 6.8-22.5 6.78-26.18 6.7-30.95 6.57-37.3 6.28-46.2 5.8-59.92 4.97-86.46 3.5-55.2.5" stroke="#333" stroke-linejoin="round" fill="none"/><path d="M3222.25 1603.44l-.95-.02v-.55l.5.04.46-.03z" stroke="#333" stroke-width=".05" fill="#333"/><path d="M2647.96 1878.32l14.22-4.77.1 9.27z" stroke="#333" fill="#333"/><path d="M3221.78 1603.4l-.22 10.36-.62 9.98-.97 9.25-1.27 8.6-1.54 8.08-1.78 7.6-2 7.16-2.2 6.8-2.42 6.5-2.6 6.2-2.8 5.95-3 5.73-3.22 5.55-3.4 5.38-3.65 5.24-3.9 5.1-4.13 5-4.42 4.92-4.73 4.83-5.07 4.76-5.46 4.72-5.9 4.67-6.4 4.63-6.94 4.6-7.6 4.6-8.33 4.6-9.22 4.56-10.26 4.56-11.5 4.55-13.04 4.54-14.9 4.5-17.27 4.42-20.33 4.3-24.45 4.13-30.3 3.8-39.4 3.26-56.57 2.28-217.26-1.88" stroke="#333" stroke-linejoin="round" fill="none"/><path d="M3222.25 1603.44l-.95-.02v-.55l.5.04.46-.03z" stroke="#333" stroke-width=".05" fill="#333"/><path d="M2647.96 1807.13l14.3-4.5-.08 9.26z" stroke="#333" fill="#333"/><path d="M3221.23 1605.3l-24.68.03-24.22 1.03-23.63 2-23.46 3-23.77 4.04-24.73 5.3-26.82 6.92-31.32 9.5-45.35 15.96-134.5 50.15-31.82 9.67-27.36 7.06-25.32 5.42-24.4 4.15-24.18 3.08-24.42 2.08-22.23.95" stroke="#333" stroke-linejoin="round" fill="none"/><path d="M3221.22 1605.3h.5" stroke="#333" fill="none"/><path d="M2644.26 1735.88l14.18-4.87.15 9.28z" stroke="#333" fill="#333"/><path d="M3221.78 1603.4l-.18 8.68-.5 8.1-.76 7.25-.97 6.52-1.12 5.9-1.26 5.4-1.4 4.96-1.48 4.58-1.58 4.24-1.66 3.95-1.74 3.7-1.82 3.48-1.9 3.3-1.97 3.1-2.06 2.97-2.16 2.82-2.23 2.7-2.33 2.6-2.44 2.5-2.56 2.4-2.7 2.32-2.83 2.25-3 2.18-3.17 2.12-3.4 2.04-3.6 2-3.9 1.92-4.18 1.87-4.56 1.8-4.96 1.72-5.45 1.64-6.03 1.54-6.73 1.43-7.57 1.28-8.63 1.08-9.96.83-11.66.48h-14l-17.22-.74-22.14-1.88-30.62-3.9-50.98-8.77-80.53-15.8c.54-2.7-1.23-5.34-3.94-5.87-2.7-.53-5.33 1.24-5.86 3.95l-129.17-25.35-37.22-4.75-28-2.37-15.93-.68" stroke="#333" stroke-linejoin="round" fill="none"/><path d="M3222.25 1603.44l-.95-.02v-.55l.5.04.46-.03z" stroke="#333" stroke-width=".05" fill="#333"/><path d="M2646.96 1654.53l14.37-4.3-.22 9.27z" stroke="#333" fill="#333"/><path d="M3128.77 1525.32l-45 .9-36.24 2.25-30.5 3.2-27.18 4-26.08 4.98-28.6 6.73-123.33 33.28-26.08 4.97-27.18 4-30.5 3.2-36.23 2.26-29.13.57" stroke="#333" stroke-linejoin="round" fill="none"/><path d="M3129.28 1525.3l.04.48h-.56l-.02-.94h.58z" stroke="#333" stroke-width=".05" fill="#333"/><path d="M2647.96 1595.97l14.17-4.92.18 9.27z" stroke="#333" fill="#333"/><path d="M3128.77 1525.32l-157.5 2.88-308.56 11.32" stroke="#333" stroke-linejoin="round" fill="none"/><path d="M3129.28 1525.3l.04.48h-.56v-.94h.56z" stroke="#333" stroke-width=".05" fill="#333"/><path d="M2647.96 1540.06l14.08-5.16.34 9.27z" stroke="#333" fill="#333"/><path d="M3128.77 1525.3l-71.6-1.4-51.75-3.2-44.23-4.65-61.6-9.33-85.18-13.34-44.22-4.64-51.75-3.2-55.73-1.1" stroke="#333" stroke-linejoin="round" fill="none"/><path d="M3129.32 1524.83l-.05.48.05.48h-.58l.02-.96z" stroke="#333" stroke-width=".05" fill="#333"/><path d="M2647.96 1484.15l14.35-4.36-.17 9.26z" stroke="#333" fill="#333"/><path d="M3128.77 1525.3l-16.78-.35-15.8-1-14.58-1.52-13.6-2-12.8-2.44-12.16-2.86-11.65-3.26-11.28-3.66-11.05-4.1-10.93-4.6-10.97-5.17-11.2-5.86-11.7-6.78-12.65-8.03-14.48-10.08-19.06-14.52-79.6-64.3-14.48-10.07-12.64-8.03-11.7-6.76-11.2-5.86-11-5.17-10.92-4.58-11.04-4.1-11.3-3.68-11.65-3.25-12.15-2.86-12.8-2.44-13.6-2-14.6-1.54-15.78-1h-.9" stroke="#333" stroke-linejoin="round" fill="none"/><path d="M3129.32 1524.83l-.05.48.05.48h-.58l.02-.96z" stroke="#333" stroke-width=".05" fill="#333"/><path d="M2647.96 1323.15l14.36-4.34-.2 9.28z" stroke="#333" fill="#333"/><path d="M3128.77 1525.3l-12.57-.26-12.22-.77-11.5-1.2-10.92-1.62-10.4-1.98-10-2.35-9.67-2.7-9.42-3.05-9.22-3.43-9.1-3.82-9.04-4.26-9.07-4.74-9.18-5.3-9.4-5.98-9.78-6.8-10.34-7.84-11.23-9.3-12.74-11.5-15.78-15.47-27.94-30-50.9-55.6-15.76-15.47-12.74-11.5-11.22-9.28-10.34-7.85-9.77-6.8-9.4-5.97-9.18-5.3-9.08-4.75-9.05-4.24-9.1-3.83-9.22-3.43-9.4-3.05-9.67-2.7-10-2.35-10.4-1.98-10.9-1.6-11.52-1.22-8.92-.56" stroke="#333" stroke-linejoin="round" fill="none"/><path d="M3129.32 1524.83l-.05.48.05.48h-.58l.03-.96z" stroke="#333" stroke-width=".05" fill="#333"/><path d="M2647.96 1255l14.4-4.2-.28 9.26z" stroke="#333" fill="#333"/><path d="M3128.77 1525.3l-25.65-.53-22.85-1.42-20.34-2.14-18.44-2.7-17.04-3.25-16.02-3.76-15.4-4.3-15.2-4.95-15.54-5.78-16.78-7.06-20.4-9.62-95.03-48.77-16.78-7.05-15.54-5.78-15.2-4.94-15.4-4.3-16.03-3.76-17.03-3.24-18.44-2.72-20.34-2.12-22.84-1.43-9.78-.2" stroke="#333" stroke-linejoin="round" fill="none"/><path d="M3129.32 1524.83l-.05.48.05.48h-.58l.02-.96z" stroke="#333" stroke-width=".05" fill="#333"/><path d="M2647.96 1395.15l14.36-4.34-.2 9.28z" stroke="#333" fill="#333"/><path d="M3128.77 1525.3l-7.93-.17-8.08-.5-7.8-.82-7.52-1.1-7.32-1.4-7.15-1.68-7-1.96-6.93-2.24-6.84-2.55-6.82-2.86-6.8-3.2-6.84-3.58-6.9-3.98-7-4.45-7.17-5-7.36-5.58-7.6-6.3-7.97-7.17-8.4-8.24-8.98-9.56-9.77-11.34-10.9-13.78-12.7-17.48-16-24.15-27.34-45.53-42.2-72.15c2.4-1.4 3.2-4.46 1.8-6.84-1.4-2.38-4.46-3.2-6.84-1.8l-11.78-20.13-16-24.15-9.55-13.18.15-.12c2.17-1.7 2.55-4.85.84-7.02-1.7-2.17-4.85-2.54-7.02-.84l-8-10.1-9.78-11.34-8.98-9.57-8.4-8.23-7.96-7.17-7.62-6.3-7.35-5.6-7.16-4.98-7.02-4.45-6.9-3.98-6.84-3.58-6.8-3.2-6.82-2.87-6.85-2.54-6.9-2.25-7.03-1.96-7.15-1.68-7.33-1.4-7.53-1.1-7.78-.82h-.15" stroke="#333" stroke-linejoin="round" fill="none"/><path d="M3129.32 1524.83l-.05.48.05.48h-.58l.03-.96z" stroke="#333" stroke-width=".05" fill="#333"/><path d="M2647.96 1100.7l14.44-4.04-.38 9.26z" stroke="#333" fill="#333"/><path d="M3128.77 1525.3l-6.73-.14-6.97-.44-6.76-.7-6.57-.98-6.43-1.23-6.3-1.47-6.22-1.73-6.16-2-6.12-2.28-6.1-2.57-6.14-2.9-6.18-3.22-6.24-3.6-6.35-4.04-6.5-4.52-6.68-5.07-6.9-5.7-7.2-6.48-7.53-7.4-8-8.5-8.56-9.93-9.3-11.77-10.33-14.23-11.8-17.8-14.27-23.62-19.6-35.78-38.68-76.18c2.47-1.25 3.45-4.26 2.2-6.72s-4.26-3.44-6.72-2.2l-29.28-57.63c2.46-1.25 3.45-4.26 2.2-6.72-1.26-2.46-4.26-3.44-6.73-2.2l-12.64-24.88-14.26-23.6-11.8-17.82-10.34-14.23-9.3-11.75-8.56-9.93-8-8.52-7.54-7.4-7.18-6.46-6.9-5.72-6.68-5.06-6.5-4.52-6.34-4.03-6.25-3.6-6.17-3.24-6.13-2.9-6.1-2.56-6.13-2.28-6.16-2-6.22-1.74-6.3-1.48-6.44-1.22-6.57-.97-4.6-.5" stroke="#333" stroke-linejoin="round" fill="none"/><path d="M3129.32 1524.83l-.05.48.05.48h-.58l.03-.96z" stroke="#333" stroke-width=".05" fill="#333"/><path d="M2647.96 1028.43l14.47-3.92-.46 9.27z" stroke="#333" fill="#333"/><path d="M3221.78 1447.2l-.7-33.58-2.12-33.68-3.5-33.2-4.8-32.62-6.1-31.92-7.3-31.15-8.45-30.28-9.52-29.34-10.54-28.34-11.47-27.3-12.33-26.2-13.1-25.08-13.83-23.95-14.46-22.8-15.06-21.67-15.6-20.54-16.06-19.42-16.5-18.34-16.92-17.27-17.28-16.24-17.63-15.23-17.98-14.24-18.28-13.3-15.63-10.37.1-.13c1.42-2.36.66-5.43-1.7-6.86-2.36-1.43-5.43-.68-6.86 1.68l-13.4-8.1-19.23-10.58-19.53-9.7-19.9-8.85-20.22-8.02-20.6-7.17-21.02-6.34-21.45-5.52-21.9-4.66-22.42-3.78-22.96-2.9-23.57-1.98-20.2-.85" stroke="#333" stroke-linejoin="round" fill="none"/><path d="M3222.26 1447.74l-.47-.03-.5.04v-.55l.95-.03z" stroke="#333" stroke-width=".05" fill="#333"/><path d="M2646.96 787.15l14.35-4.38-.16 9.27z" stroke="#333" fill="#333"/><path d="M3221.78 1447.2l-.45-21.3-1.33-21.2-2.17-20.67-2.98-20.17-3.76-19.7-4.53-19.3-5.27-18.9-6.02-18.52-6.76-18.17-7.5-17.86-8.26-17.53-9.02-17.23-9.78-16.95-10.57-16.66-11.38-16.37-12.2-16.06-13.04-15.75-13.9-15.43-14.78-15.1-15.7-14.73-16.6-14.34-17.53-13.9-18.5-13.43-19.43-12.9-20.4-12.36-21.33-11.72-22.26-11.06-23.18-10.33-24.07-9.53-24.92-8.67-25.7-7.76-26.46-6.77-27.13-5.77-27.75-4.7-28.27-3.56-28.74-2.4-27.42-1.16" stroke="#333" stroke-linejoin="round" fill="none"/><path d="M3222.26 1447.74l-.47-.03-.5.04v-.54l.95-.02z" stroke="#333" stroke-width=".05" fill="#333"/><path d="M2647.96 939.04l14.33-4.44-.14 9.27z" stroke="#333" fill="#333"/><defs><path d="M240 0l2-218c-23 76-54 145-80 218h-23L58-218 59 0H30v-248h44l77 211c21-75 51-140 76-211h43V0h-30" id="N"/><path d="M100-194c63 0 86 42 84 106H49c0 40 14 67 53 68 26 1 43-12 49-29l28 8c-11 28-37 45-77 45C44 4 14-33 15-96c1-61 26-98 85-98zm52 81c6-60-76-77-97-28-3 7-6 17-6 28h103" id="O"/><path d="M117-194c89-4 53 116 60 194h-32v-121c0-31-8-49-39-48C34-167 62-67 57 0H25l-1-190h30c1 10-1 24 2 32 11-22 29-35 61-36" id="P"/><path d="M59-47c-2 24 18 29 38 22v24C64 9 27 4 27-40v-127H5v-23h24l9-43h21v43h35v23H59v120" id="Q"/><path d="M100-194c62-1 85 37 85 99 1 63-27 99-86 99S16-35 15-95c0-66 28-99 85-99zM99-20c44 1 53-31 53-75 0-43-8-75-51-75s-53 32-53 75 10 74 51 75" id="R"/><path d="M114-163C36-179 61-72 57 0H25l-1-190h30c1 12-1 29 2 39 6-27 23-49 58-41v29" id="S"/><g id="a"><use transform="matrix(0.05,0,0,0.05,0,0)" xlink:href="#N"/><use transform="matrix(0.05,0,0,0.05,14.950000000000001,0)" xlink:href="#O"/><use transform="matrix(0.05,0,0,0.05,24.950000000000003,0)" xlink:href="#P"/><use transform="matrix(0.05,0,0,0.05,34.95,0)" xlink:href="#Q"/><use transform="matrix(0.05,0,0,0.05,39.95,0)" xlink:href="#R"/><use transform="matrix(0.05,0,0,0.05,49.95,0)" xlink:href="#S"/></g><path d="M212-179c-10-28-35-45-73-45-59 0-87 40-87 99 0 60 29 101 89 101 43 0 62-24 78-52l27 14C228-24 195 4 139 4 59 4 22-46 18-125c-6-104 99-153 187-111 19 9 31 26 39 46" id="T"/><path d="M141-36C126-15 110 5 73 4 37 3 15-17 15-53c-1-64 63-63 125-63 3-35-9-54-41-54-24 1-41 7-42 31l-33-3c5-37 33-52 76-52 45 0 72 20 72 64v82c-1 20 7 32 28 27v20c-31 9-61-2-59-35zM48-53c0 20 12 33 32 33 41-3 63-29 60-74-43 2-92-5-92 41" id="U"/><g id="b"><use transform="matrix(0.05,0,0,0.05,0,0)" xlink:href="#T"/><use transform="matrix(0.05,0,0,0.05,12.950000000000001,0)" xlink:href="#S"/><use transform="matrix(0.05,0,0,0.05,18.900000000000002,0)" xlink:href="#O"/><use transform="matrix(0.05,0,0,0.05,28.900000000000002,0)" xlink:href="#U"/><use transform="matrix(0.05,0,0,0.05,38.900000000000006,0)" xlink:href="#Q"/><use transform="matrix(0.05,0,0,0.05,43.900000000000006,0)" xlink:href="#O"/></g><path d="M84 4C-5 8 30-112 23-190h32v120c0 31 7 50 39 49 72-2 45-101 50-169h31l1 190h-30c-1-10 1-25-2-33-11 22-28 36-60 37" id="V"/><path d="M135-143c-3-34-86-38-87 0 15 53 115 12 119 90S17 21 10-45l28-5c4 36 97 45 98 0-10-56-113-15-118-90-4-57 82-63 122-42 12 7 21 19 24 35" id="W"/><g id="c"><use transform="matrix(0.05,0,0,0.05,0,0)" xlink:href="#T"/><use transform="matrix(0.05,0,0,0.05,12.950000000000001,0)" xlink:href="#R"/><use transform="matrix(0.05,0,0,0.05,22.950000000000003,0)" xlink:href="#V"/><use transform="matrix(0.05,0,0,0.05,32.95,0)" xlink:href="#S"/><use transform="matrix(0.05,0,0,0.05,38.900000000000006,0)" xlink:href="#W"/><use transform="matrix(0.05,0,0,0.05,47.900000000000006,0)" xlink:href="#O"/></g><path d="M232-93c-1 65-40 97-104 97C67 4 28-28 28-90v-158h33c8 89-33 224 67 224 102 0 64-133 71-224h33v155" id="X"/><path d="M115-194c55 1 70 41 70 98S169 2 115 4C84 4 66-9 55-30l1 105H24l-1-265h31l2 30c10-21 28-34 59-34zm-8 174c40 0 45-34 45-75s-6-73-45-74c-42 0-51 32-51 76 0 43 10 73 51 73" id="Y"/><path d="M85-194c31 0 48 13 60 33l-1-100h32l1 261h-30c-2-10 0-23-3-31C134-8 116 4 85 4 32 4 16-35 15-94c0-66 23-100 70-100zm9 24c-40 0-46 34-46 75 0 40 6 74 45 74 42 0 51-32 51-76 0-42-9-74-50-73" id="Z"/><g id="d"><use transform="matrix(0.05,0,0,0.05,0,0)" xlink:href="#X"/><use transform="matrix(0.05,0,0,0.05,12.950000000000001,0)" xlink:href="#Y"/><use transform="matrix(0.05,0,0,0.05,22.950000000000003,0)" xlink:href="#Z"/><use transform="matrix(0.05,0,0,0.05,32.95,0)" xlink:href="#U"/><use transform="matrix(0.05,0,0,0.05,42.95,0)" xlink:href="#Q"/><use transform="matrix(0.05,0,0,0.05,47.95,0)" xlink:href="#O"/></g><path d="M30-248c118-7 216 8 213 122C240-48 200 0 122 0H30v-248zM63-27c89 8 146-16 146-99s-60-101-146-95v194" id="aa"/><path d="M24 0v-261h32V0H24" id="ab"/><g id="e"><use transform="matrix(0.05,0,0,0.05,0,0)" xlink:href="#aa"/><use transform="matrix(0.05,0,0,0.05,12.950000000000001,0)" xlink:href="#O"/><use transform="matrix(0.05,0,0,0.05,22.950000000000003,0)" xlink:href="#ab"/><use transform="matrix(0.05,0,0,0.05,26.900000000000002,0)" xlink:href="#O"/><use transform="matrix(0.05,0,0,0.05,36.900000000000006,0)" xlink:href="#Q"/><use transform="matrix(0.05,0,0,0.05,41.900000000000006,0)" xlink:href="#O"/></g><path d="M137 0h-34L2-248h35l83 218 83-218h36" id="ac"/><path d="M24-231v-30h32v30H24zM24 0v-190h32V0H24" id="ad"/><path d="M206 0h-36l-40-164L89 0H53L-1-190h32L70-26l43-164h34l41 164 42-164h31" id="ae"/><g id="f"><use transform="matrix(0.05,0,0,0.05,0,0)" xlink:href="#ac"/><use transform="matrix(0.05,0,0,0.05,11.65,0)" xlink:href="#ad"/><use transform="matrix(0.05,0,0,0.05,15.600000000000001,0)" xlink:href="#O"/><use transform="matrix(0.05,0,0,0.05,25.6,0)" xlink:href="#ae"/></g><g id="g"><use transform="matrix(0.05,0,0,0.05,0,0)" xlink:href="#T"/><use transform="matrix(0.05,0,0,0.05,12.950000000000001,0)" xlink:href="#R"/><use transform="matrix(0.05,0,0,0.05,22.950000000000003,0)" xlink:href="#V"/><use transform="matrix(0.05,0,0,0.05,32.95,0)" xlink:href="#S"/><use transform="matrix(0.05,0,0,0.05,38.900000000000006,0)" xlink:href="#W"/><use transform="matrix(0.05,0,0,0.05,47.900000000000006,0)" xlink:href="#O"/></g><path d="M233-177c-1 41-23 64-60 70L243 0h-38l-65-103H63V0H30v-248c88 3 205-21 203 71zM63-129c60-2 137 13 137-47 0-61-80-42-137-45v92" id="af"/><path d="M108 0H70L1-190h34L89-25l56-165h34" id="ag"/><g id="h"><use transform="matrix(0.05,0,0,0.05,0,0)" xlink:href="#af"/><use transform="matrix(0.05,0,0,0.05,12.950000000000001,0)" xlink:href="#O"/><use transform="matrix(0.05,0,0,0.05,22.950000000000003,0)" xlink:href="#ag"/><use transform="matrix(0.05,0,0,0.05,31.950000000000003,0)" xlink:href="#ad"/><use transform="matrix(0.05,0,0,0.05,35.900000000000006,0)" xlink:href="#O"/><use transform="matrix(0.05,0,0,0.05,45.900000000000006,0)" xlink:href="#ae"/><use transform="matrix(0.05,0,0,0.05,58.85,0)" xlink:href="#W"/></g><g id="i"><use transform="matrix(0.05,0,0,0.05,0,0)" xlink:href="#af"/><use transform="matrix(0.05,0,0,0.05,12.950000000000001,0)" xlink:href="#O"/><use transform="matrix(0.05,0,0,0.05,22.950000000000003,0)" xlink:href="#W"/><use transform="matrix(0.05,0,0,0.05,31.950000000000003,0)" xlink:href="#Y"/><use transform="matrix(0.05,0,0,0.05,41.95,0)" xlink:href="#R"/><use transform="matrix(0.05,0,0,0.05,51.95,0)" xlink:href="#P"/><use transform="matrix(0.05,0,0,0.05,61.95,0)" xlink:href="#Z"/></g><g id="j"><use transform="matrix(0.05,0,0,0.05,0,0)" xlink:href="#Q"/><use transform="matrix(0.05,0,0,0.05,5,0)" xlink:href="#R"/></g><g id="k"><use transform="matrix(0.05,0,0,0.05,0,0)" xlink:href="#T"/><use transform="matrix(0.05,0,0,0.05,12.950000000000001,0)" xlink:href="#R"/><use transform="matrix(0.05,0,0,0.05,22.950000000000003,0)" xlink:href="#V"/><use transform="matrix(0.05,0,0,0.05,32.95,0)" xlink:href="#S"/><use transform="matrix(0.05,0,0,0.05,38.900000000000006,0)" xlink:href="#W"/><use transform="matrix(0.05,0,0,0.05,47.900000000000006,0)" xlink:href="#O"/></g><path d="M30 0v-248h187v28H63v79h144v27H63v87h162V0H30" id="ah"/><path d="M210-169c-67 3-38 105-44 169h-31v-121c0-29-5-50-35-48C34-165 62-65 56 0H25l-1-190h30c1 10-1 24 2 32 10-44 99-50 107 0 11-21 27-35 58-36 85-2 47 119 55 194h-31v-121c0-29-5-49-35-48" id="ai"/><g id="l"><use transform="matrix(0.05,0,0,0.05,0,0)" xlink:href="#ah"/><use transform="matrix(0.05,0,0,0.05,12,0)" xlink:href="#P"/><use transform="matrix(0.05,0,0,0.05,22,0)" xlink:href="#S"/><use transform="matrix(0.05,0,0,0.05,27.950000000000003,0)" xlink:href="#R"/><use transform="matrix(0.05,0,0,0.05,37.95,0)" xlink:href="#ab"/><use transform="matrix(0.05,0,0,0.05,41.900000000000006,0)" xlink:href="#ab"/><use transform="matrix(0.05,0,0,0.05,45.85000000000001,0)" xlink:href="#ai"/><use transform="matrix(0.05,0,0,0.05,60.80000000000001,0)" xlink:href="#O"/><use transform="matrix(0.05,0,0,0.05,70.80000000000001,0)" xlink:href="#P"/><use transform="matrix(0.05,0,0,0.05,80.80000000000001,0)" xlink:href="#Q"/><use transform="matrix(0.05,0,0,0.05,85.80000000000001,0)" xlink:href="#W"/></g><path d="M185-189c-5-48-123-54-124 2 14 75 158 14 163 119 3 78-121 87-175 55-17-10-28-26-33-46l33-7c5 56 141 63 141-1 0-78-155-14-162-118-5-82 145-84 179-34 5 7 8 16 11 25" id="aj"/><g id="m"><use transform="matrix(0.05,0,0,0.05,0,0)" xlink:href="#aj"/><use transform="matrix(0.05,0,0,0.05,12,0)" xlink:href="#O"/><use transform="matrix(0.05,0,0,0.05,22,0)" xlink:href="#P"/><use transform="matrix(0.05,0,0,0.05,32,0)" xlink:href="#Z"/></g><path d="M101-234c-31-9-42 10-38 44h38v23H63V0H32v-167H5v-23h27c-7-52 17-82 69-68v24" id="ak"/><path d="M96-169c-40 0-48 33-48 73s9 75 48 75c24 0 41-14 43-38l32 2c-6 37-31 61-74 61-59 0-76-41-82-99-10-93 101-131 147-64 4 7 5 14 7 22l-32 3c-4-21-16-35-41-35" id="al"/><g id="n"><use transform="matrix(0.05,0,0,0.05,0,0)" xlink:href="#P"/><use transform="matrix(0.05,0,0,0.05,10,0)" xlink:href="#R"/><use transform="matrix(0.05,0,0,0.05,20,0)" xlink:href="#Q"/><use transform="matrix(0.05,0,0,0.05,25,0)" xlink:href="#ad"/><use transform="matrix(0.05,0,0,0.05,28.950000000000003,0)" xlink:href="#ak"/><use transform="matrix(0.05,0,0,0.05,33.95,0)" xlink:href="#ad"/><use transform="matrix(0.05,0,0,0.05,37.900000000000006,0)" xlink:href="#al"/><use transform="matrix(0.05,0,0,0.05,46.900000000000006,0)" xlink:href="#U"/><use transform="matrix(0.05,0,0,0.05,56.900000000000006,0)" xlink:href="#Q"/><use transform="matrix(0.05,0,0,0.05,61.900000000000006,0)" xlink:href="#ad"/><use transform="matrix(0.05,0,0,0.05,65.85000000000001,0)" xlink:href="#R"/><use transform="matrix(0.05,0,0,0.05,75.85000000000001,0)" xlink:href="#P"/><use transform="matrix(0.05,0,0,0.05,85.85000000000001,0)" xlink:href="#W"/></g><path d="M205 0l-28-72H64L36 0H1l101-248h38L239 0h-34zm-38-99l-47-123c-12 45-31 82-46 123h93" id="am"/><path d="M179-190L93 31C79 59 56 82 12 73V49c39 6 53-20 64-50L1-190h34L92-34l54-156h33" id="an"/><g id="o"><use transform="matrix(0.05,0,0,0.05,0,0)" xlink:href="#am"/><use transform="matrix(0.05,0,0,0.05,12,0)" xlink:href="#P"/><use transform="matrix(0.05,0,0,0.05,22,0)" xlink:href="#U"/><use transform="matrix(0.05,0,0,0.05,32,0)" xlink:href="#ab"/><use transform="matrix(0.05,0,0,0.05,35.95,0)" xlink:href="#an"/><use transform="matrix(0.05,0,0,0.05,44.95,0)" xlink:href="#Q"/><use transform="matrix(0.05,0,0,0.05,49.95,0)" xlink:href="#ad"/><use transform="matrix(0.05,0,0,0.05,53.900000000000006,0)" xlink:href="#al"/><use transform="matrix(0.05,0,0,0.05,62.900000000000006,0)" xlink:href="#W"/></g><g id="p"><use transform="matrix(0.05,0,0,0.05,0,0)" xlink:href="#aj"/><use transform="matrix(0.05,0,0,0.05,12,0)" xlink:href="#Q"/><use transform="matrix(0.05,0,0,0.05,17,0)" xlink:href="#V"/><use transform="matrix(0.05,0,0,0.05,27,0)" xlink:href="#Z"/><use transform="matrix(0.05,0,0,0.05,37,0)" xlink:href="#O"/><use transform="matrix(0.05,0,0,0.05,47,0)" xlink:href="#P"/><use transform="matrix(0.05,0,0,0.05,57,0)" xlink:href="#Q"/></g><g id="q"><use transform="matrix(0.05,0,0,0.05,0,0)" xlink:href="#am"/><use transform="matrix(0.05,0,0,0.05,12,0)" xlink:href="#Z"/><use transform="matrix(0.05,0,0,0.05,22,0)" xlink:href="#Z"/></g><path d="M63-220v92h138v28H63V0H30v-248h175v28H63" id="ao"/><g id="r"><use transform="matrix(0.05,0,0,0.05,0,0)" xlink:href="#ao"/><use transform="matrix(0.05,0,0,0.05,10.950000000000001,0)" xlink:href="#U"/><use transform="matrix(0.05,0,0,0.05,20.950000000000003,0)" xlink:href="#ag"/><use transform="matrix(0.05,0,0,0.05,29.950000000000003,0)" xlink:href="#R"/><use transform="matrix(0.05,0,0,0.05,39.95,0)" xlink:href="#S"/><use transform="matrix(0.05,0,0,0.05,45.900000000000006,0)" xlink:href="#ad"/><use transform="matrix(0.05,0,0,0.05,49.85000000000001,0)" xlink:href="#Q"/><use transform="matrix(0.05,0,0,0.05,54.85,0)" xlink:href="#O"/><use transform="matrix(0.05,0,0,0.05,64.85000000000001,0)" xlink:href="#W"/></g><g id="s"><use transform="matrix(0.05,0,0,0.05,0,0)" xlink:href="#af"/><use transform="matrix(0.05,0,0,0.05,12.950000000000001,0)" xlink:href="#O"/><use transform="matrix(0.05,0,0,0.05,22.950000000000003,0)" xlink:href="#ai"/><use transform="matrix(0.05,0,0,0.05,37.900000000000006,0)" xlink:href="#R"/><use transform="matrix(0.05,0,0,0.05,47.900000000000006,0)" xlink:href="#ag"/><use transform="matrix(0.05,0,0,0.05,56.900000000000006,0)" xlink:href="#O"/></g><g id="t"><use transform="matrix(0.05,0,0,0.05,0,0)" xlink:href="#ak"/><use transform="matrix(0.05,0,0,0.05,5,0)" xlink:href="#S"/><use transform="matrix(0.05,0,0,0.05,10.95,0)" xlink:href="#R"/><use transform="matrix(0.05,0,0,0.05,20.95,0)" xlink:href="#ai"/></g><g id="u"><use transform="matrix(0.05,0,0,0.05,0,0)" xlink:href="#T"/><use transform="matrix(0.05,0,0,0.05,12.950000000000001,0)" xlink:href="#U"/><use transform="matrix(0.05,0,0,0.05,22.950000000000003,0)" xlink:href="#S"/><use transform="matrix(0.05,0,0,0.05,28.900000000000002,0)" xlink:href="#Q"/></g><path d="M160-131c35 5 61 23 61 61C221 17 115-2 30 0v-248c76 3 177-17 177 60 0 33-19 50-47 57zm-97-11c50-1 110 9 110-42 0-47-63-36-110-37v79zm0 115c55-2 124 14 124-45 0-56-70-42-124-44v89" id="ap"/><path d="M143 0L79-87 56-68V0H24v-261h32v163l83-92h37l-77 82L181 0h-38" id="aq"/><g id="v"><use transform="matrix(0.05,0,0,0.05,0,0)" xlink:href="#ap"/><use transform="matrix(0.05,0,0,0.05,12,0)" xlink:href="#R"/><use transform="matrix(0.05,0,0,0.05,22,0)" xlink:href="#R"/><use transform="matrix(0.05,0,0,0.05,32,0)" xlink:href="#aq"/></g><g id="w"><use transform="matrix(0.05,0,0,0.05,0,0)" xlink:href="#ah"/><use transform="matrix(0.05,0,0,0.05,12,0)" xlink:href="#P"/><use transform="matrix(0.05,0,0,0.05,22,0)" xlink:href="#S"/><use transform="matrix(0.05,0,0,0.05,27.950000000000003,0)" xlink:href="#R"/><use transform="matrix(0.05,0,0,0.05,37.95,0)" xlink:href="#ab"/><use transform="matrix(0.05,0,0,0.05,41.900000000000006,0)" xlink:href="#ab"/></g><g id="x"><use transform="matrix(0.05,0,0,0.05,0,0)" xlink:href="#ad"/><use transform="matrix(0.05,0,0,0.05,3.95,0)" xlink:href="#P"/></g><path d="M106-169C34-169 62-67 57 0H25v-261h32l-1 103c12-21 28-36 61-36 89 0 53 116 60 194h-32v-121c2-32-8-49-39-48" id="ar"/><g id="y"><use transform="matrix(0.05,0,0,0.05,0,0)" xlink:href="#am"/><use transform="matrix(0.05,0,0,0.05,12,0)" xlink:href="#S"/><use transform="matrix(0.05,0,0,0.05,17.95,0)" xlink:href="#al"/><use transform="matrix(0.05,0,0,0.05,26.950000000000003,0)" xlink:href="#ar"/><use transform="matrix(0.05,0,0,0.05,36.95,0)" xlink:href="#ad"/><use transform="matrix(0.05,0,0,0.05,40.900000000000006,0)" xlink:href="#ag"/><use transform="matrix(0.05,0,0,0.05,49.900000000000006,0)" xlink:href="#O"/></g><g id="z"><use transform="matrix(0.05,0,0,0.05,0,0)" xlink:href="#af"/><use transform="matrix(0.05,0,0,0.05,12.950000000000001,0)" xlink:href="#O"/><use transform="matrix(0.05,0,0,0.05,22.950000000000003,0)" xlink:href="#ag"/><use transform="matrix(0.05,0,0,0.05,31.950000000000003,0)" xlink:href="#ad"/><use transform="matrix(0.05,0,0,0.05,35.900000000000006,0)" xlink:href="#O"/><use transform="matrix(0.05,0,0,0.05,45.900000000000006,0)" xlink:href="#ae"/></g><g id="A"><use transform="matrix(0.05,0,0,0.05,0,0)" xlink:href="#ah"/><use transform="matrix(0.05,0,0,0.05,12,0)" xlink:href="#Z"/><use transform="matrix(0.05,0,0,0.05,22,0)" xlink:href="#ad"/><use transform="matrix(0.05,0,0,0.05,25.950000000000003,0)" xlink:href="#Q"/></g><path d="M30-248c87 1 191-15 191 75 0 78-77 80-158 76V0H30v-248zm33 125c57 0 124 11 124-50 0-59-68-47-124-48v98" id="as"/><path d="M177-190C167-65 218 103 67 71c-23-6-38-20-44-43l32-5c15 47 100 32 89-28v-30C133-14 115 1 83 1 29 1 15-40 15-95c0-56 16-97 71-98 29-1 48 16 59 35 1-10 0-23 2-32h30zM94-22c36 0 50-32 50-73 0-42-14-75-50-75-39 0-46 34-46 75s6 73 46 73" id="at"/><g id="B"><use transform="matrix(0.05,0,0,0.05,0,0)" xlink:href="#as"/><use transform="matrix(0.05,0,0,0.05,12,0)" xlink:href="#S"/><use transform="matrix(0.05,0,0,0.05,17.95,0)" xlink:href="#R"/><use transform="matrix(0.05,0,0,0.05,27.950000000000003,0)" xlink:href="#at"/><use transform="matrix(0.05,0,0,0.05,37.95,0)" xlink:href="#S"/><use transform="matrix(0.05,0,0,0.05,43.900000000000006,0)" xlink:href="#O"/><use transform="matrix(0.05,0,0,0.05,53.900000000000006,0)" xlink:href="#W"/><use transform="matrix(0.05,0,0,0.05,62.900000000000006,0)" xlink:href="#W"/></g><path d="M33 0v-248h34V0H33" id="au"/><g id="C"><use transform="matrix(0.05,0,0,0.05,0,0)" xlink:href="#au"/><use transform="matrix(0.05,0,0,0.05,5,0)" xlink:href="#P"/><use transform="matrix(0.05,0,0,0.05,15,0)" xlink:href="#ad"/><use transform="matrix(0.05,0,0,0.05,18.95,0)" xlink:href="#Q"/><use transform="matrix(0.05,0,0,0.05,23.95,0)" xlink:href="#ad"/><use transform="matrix(0.05,0,0,0.05,27.899999999999995,0)" xlink:href="#U"/><use transform="matrix(0.05,0,0,0.05,37.9,0)" xlink:href="#Q"/><use transform="matrix(0.05,0,0,0.05,42.9,0)" xlink:href="#O"/></g><g id="D"><use transform="matrix(0.05,0,0,0.05,0,0)" xlink:href="#T"/><use transform="matrix(0.05,0,0,0.05,12.950000000000001,0)" xlink:href="#ar"/><use transform="matrix(0.05,0,0,0.05,22.950000000000003,0)" xlink:href="#U"/><use transform="matrix(0.05,0,0,0.05,32.95,0)" xlink:href="#Q"/></g><g id="E"><use transform="matrix(0.05,0,0,0.05,0,0)" xlink:href="#N"/><use transform="matrix(0.05,0,0,0.05,14.950000000000001,0)" xlink:href="#O"/><use transform="matrix(0.05,0,0,0.05,24.950000000000003,0)" xlink:href="#W"/><use transform="matrix(0.05,0,0,0.05,33.95,0)" xlink:href="#W"/><use transform="matrix(0.05,0,0,0.05,42.95,0)" xlink:href="#U"/><use transform="matrix(0.05,0,0,0.05,52.95,0)" xlink:href="#at"/><use transform="matrix(0.05,0,0,0.05,62.95,0)" xlink:href="#O"/></g><g id="F"><use transform="matrix(0.05,0,0,0.05,0,0)" xlink:href="#ac"/><use transform="matrix(0.05,0,0,0.05,11.65,0)" xlink:href="#ad"/><use transform="matrix(0.05,0,0,0.05,15.600000000000001,0)" xlink:href="#O"/><use transform="matrix(0.05,0,0,0.05,25.6,0)" xlink:href="#ae"/></g><g id="G"><use transform="matrix(0.05,0,0,0.05,0,0)" xlink:href="#T"/><use transform="matrix(0.05,0,0,0.05,12.950000000000001,0)" xlink:href="#O"/><use transform="matrix(0.05,0,0,0.05,22.950000000000003,0)" xlink:href="#S"/><use transform="matrix(0.05,0,0,0.05,28.900000000000002,0)" xlink:href="#Q"/><use transform="matrix(0.05,0,0,0.05,33.900000000000006,0)" xlink:href="#ad"/><use transform="matrix(0.05,0,0,0.05,37.85000000000001,0)" xlink:href="#ak"/><use transform="matrix(0.05,0,0,0.05,42.85000000000001,0)" xlink:href="#ad"/><use transform="matrix(0.05,0,0,0.05,46.80000000000001,0)" xlink:href="#al"/><use transform="matrix(0.05,0,0,0.05,55.80000000000001,0)" xlink:href="#U"/><use transform="matrix(0.05,0,0,0.05,65.80000000000001,0)" xlink:href="#Q"/><use transform="matrix(0.05,0,0,0.05,70.80000000000001,0)" xlink:href="#O"/><use transform="matrix(0.05,0,0,0.05,80.80000000000001,0)" xlink:href="#W"/></g><g id="H"><use transform="matrix(0.05,0,0,0.05,0,0)" xlink:href="#O"/><use transform="matrix(0.05,0,0,0.05,10,0)" xlink:href="#P"/><use transform="matrix(0.05,0,0,0.05,20,0)" xlink:href="#Q"/><use transform="matrix(0.05,0,0,0.05,25,0)" xlink:href="#S"/><use transform="matrix(0.05,0,0,0.05,30.950000000000003,0)" xlink:href="#R"/><use transform="matrix(0.05,0,0,0.05,40.95,0)" xlink:href="#ab"/><use transform="matrix(0.05,0,0,0.05,44.900000000000006,0)" xlink:href="#ab"/><use transform="matrix(0.05,0,0,0.05,48.85000000000001,0)" xlink:href="#O"/><use transform="matrix(0.05,0,0,0.05,58.85,0)" xlink:href="#Z"/></g><g id="I"><use transform="matrix(0.05,0,0,0.05,0,0)" xlink:href="#al"/><use transform="matrix(0.05,0,0,0.05,9,0)" xlink:href="#R"/><use transform="matrix(0.05,0,0,0.05,19,0)" xlink:href="#V"/><use transform="matrix(0.05,0,0,0.05,29,0)" xlink:href="#S"/><use transform="matrix(0.05,0,0,0.05,34.95,0)" xlink:href="#W"/><use transform="matrix(0.05,0,0,0.05,43.95,0)" xlink:href="#O"/><use transform="matrix(0.05,0,0,0.05,53.95,0)" xlink:href="#W"/></g><path d="M127-220V0H93v-220H8v-28h204v28h-85" id="av"/><g id="J"><use transform="matrix(0.05,0,0,0.05,0,0)" xlink:href="#av"/><use transform="matrix(0.05,0,0,0.05,10.3,0)" xlink:href="#S"/><use transform="matrix(0.05,0,0,0.05,16.25,0)" xlink:href="#U"/><use transform="matrix(0.05,0,0,0.05,26.25,0)" xlink:href="#al"/><use transform="matrix(0.05,0,0,0.05,35.25,0)" xlink:href="#aq"/></g><g id="K"><use transform="matrix(0.05,0,0,0.05,0,0)" xlink:href="#al"/><use transform="matrix(0.05,0,0,0.05,9,0)" xlink:href="#R"/><use transform="matrix(0.05,0,0,0.05,19,0)" xlink:href="#V"/><use transform="matrix(0.05,0,0,0.05,29,0)" xlink:href="#S"/><use transform="matrix(0.05,0,0,0.05,34.95,0)" xlink:href="#W"/><use transform="matrix(0.05,0,0,0.05,43.95,0)" xlink:href="#O"/></g><g id="L"><use transform="matrix(0.05,0,0,0.05,0,0)" xlink:href="#Q"/><use transform="matrix(0.05,0,0,0.05,5,0)" xlink:href="#O"/><use transform="matrix(0.05,0,0,0.05,15,0)" xlink:href="#U"/><use transform="matrix(0.05,0,0,0.05,25,0)" xlink:href="#al"/><use transform="matrix(0.05,0,0,0.05,34,0)" xlink:href="#ar"/><use transform="matrix(0.05,0,0,0.05,44,0)" xlink:href="#O"/><use transform="matrix(0.05,0,0,0.05,54,0)" xlink:href="#S"/><use transform="matrix(0.05,0,0,0.05,59.95,0)" xlink:href="#W"/></g><g id="M"><use transform="matrix(0.05,0,0,0.05,0,0)" xlink:href="#Y"/><use transform="matrix(0.05,0,0,0.05,10,0)" xlink:href="#S"/><use transform="matrix(0.05,0,0,0.05,15.949999999999998,0)" xlink:href="#R"/><use transform="matrix(0.05,0,0,0.05,25.950000000000003,0)" xlink:href="#ak"/><use transform="matrix(0.05,0,0,0.05,30.950000000000003,0)" xlink:href="#ad"/><use transform="matrix(0.05,0,0,0.05,34.9,0)" xlink:href="#ab"/><use transform="matrix(0.05,0,0,0.05,38.85,0)" xlink:href="#O"/></g></defs></g></svg>