<svg xmlns="http://www.w3.org/2000/svg" xmlns:xlink="http://www.w3.org/1999/xlink" xmlns:lucid="lucid" width="2193.59" height="2210"><g transform="translate(-8999 661)" lucid:page-tab-id="HWEp-vi-RSFO"><path d="M9000-1000h2500v3000H9000z" fill="#fff"/><path d="M9898-640h558.2v392H9898z" fill="#e3fae3"/><path d="M9898-640h558.2v392H9898zM9898-600h558.2M10177.1-600v352" stroke="#3a414a" stroke-width="2" fill="none"/><use xlink:href="#a" transform="matrix(1,0,0,1,9908,-640) translate(244.55 23.6)"/><use xlink:href="#b" transform="matrix(1,0,0,1,9903,-597.5) translate(0 17.1)"/><use xlink:href="#c" transform="matrix(1,0,0,1,10182.096913580246,-597.5) translate(0 17.1)"/><use xlink:href="#d" transform="matrix(1,0,0,1,9903,-565.5) translate(0 17.1)"/><use xlink:href="#c" transform="matrix(1,0,0,1,10182.096913580246,-565.5) translate(0 17.1)"/><use xlink:href="#e" transform="matrix(1,0,0,1,9903,-533.5) translate(0 17.1)"/><use xlink:href="#c" transform="matrix(1,0,0,1,10182.096913580246,-533.5) translate(0 17.1)"/><use xlink:href="#f" transform="matrix(1,0,0,1,9903,-501.5) translate(0 17.1)"/><use xlink:href="#c" transform="matrix(1,0,0,1,10182.096913580246,-501.5) translate(0 17.1)"/><use xlink:href="#g" transform="matrix(1,0,0,1,9903,-469.5) translate(0 17.1)"/><use xlink:href="#c" transform="matrix(1,0,0,1,10182.096913580246,-469.5) translate(0 17.1)"/><use xlink:href="#h" transform="matrix(1,0,0,1,9903,-437.5) translate(0 17.1)"/><use xlink:href="#c" transform="matrix(1,0,0,1,10182.096913580246,-437.5) translate(0 17.1)"/><use xlink:href="#i" transform="matrix(1,0,0,1,9903,-405.5) translate(0 17.1)"/><use xlink:href="#c" transform="matrix(1,0,0,1,10182.096913580246,-405.5) translate(0 17.1)"/><use xlink:href="#j" transform="matrix(1,0,0,1,9903,-373.5) translate(0 17.1)"/><use xlink:href="#c" transform="matrix(1,0,0,1,10182.096913580246,-373.5) translate(0 17.1)"/><use xlink:href="#k" transform="matrix(1,0,0,1,9903,-341.5) translate(0 17.1)"/><use xlink:href="#c" transform="matrix(1,0,0,1,10182.096913580246,-341.5) translate(0 17.1)"/><use xlink:href="#l" transform="matrix(1,0,0,1,9903,-309.5) translate(0 17.1)"/><use xlink:href="#m" transform="matrix(1,0,0,1,10182.096913580246,-309.5) translate(0 17.1)"/><use xlink:href="#n" transform="matrix(1,0,0,1,9903,-277.5) translate(0 17.1)"/><use xlink:href="#o" transform="matrix(1,0,0,1,10182.096913580246,-277.5) translate(0 17.1)"/><path d="M9817-92h720v72h-720z" fill="#e3fae3"/><path d="M9817-92h720v72h-720zM9817-52h720M10177-52v32" stroke="#3a414a" stroke-width="2" fill="none"/><use xlink:href="#p" transform="matrix(1,0,0,1,9827,-92) translate(321.575 23.6)"/><use xlink:href="#q" transform="matrix(1,0,0,1,9822,-49.5) translate(0 17.1)"/><use xlink:href="#r" transform="matrix(1,0,0,1,10182,-49.5) translate(0 17.1)"/><path d="M10699.44 188h472.15v136h-472.16z" fill="#e3fae3"/><path d="M10699.44 188h472.15v136h-472.16zM10699.44 228h472.15M10935.5 228v96" stroke="#3a414a" stroke-width="2" fill="none"/><use xlink:href="#s" transform="matrix(1,0,0,1,10709.43950617284,188) translate(187.775 23.6)"/><use xlink:href="#t" transform="matrix(1,0,0,1,10704.43950617284,230.5) translate(0 17.1)"/><use xlink:href="#u" transform="matrix(1,0,0,1,10940.513888888889,230.5) translate(0 17.1)"/><use xlink:href="#v" transform="matrix(1,0,0,1,10704.43950617284,262.5) translate(0 17.1)"/><use xlink:href="#m" transform="matrix(1,0,0,1,10940.513888888889,262.5) translate(0 17.1)"/><use xlink:href="#w" transform="matrix(1,0,0,1,10704.43950617284,294.5) translate(0 17.1)"/><use xlink:href="#x" transform="matrix(1,0,0,1,10940.513888888889,294.5) translate(0 17.1)"/><path d="M9020 188h640.56v136H9020z" fill="#e3fae3"/><path d="M9020 188h640.56v136H9020zM9020 228h640.56M9340.28 228v96" stroke="#3a414a" stroke-width="2" fill="none"/><use xlink:href="#y" transform="matrix(1,0,0,1,9030,188) translate(268.125 23.6)"/><use xlink:href="#z" transform="matrix(1,0,0,1,9025,230.5) translate(0 17.1)"/><use xlink:href="#u" transform="matrix(1,0,0,1,9345.28024691358,230.5) translate(0 17.1)"/><use xlink:href="#A" transform="matrix(1,0,0,1,9025,262.5) translate(0 17.1)"/><use xlink:href="#u" transform="matrix(1,0,0,1,9345.28024691358,262.5) translate(0 17.1)"/><use xlink:href="#B" transform="matrix(1,0,0,1,9025,294.5) translate(0 17.1)"/><use xlink:href="#C" transform="matrix(1,0,0,1,9345.28024691358,294.5) translate(0 17.1)"/><path d="M10706 440h458.37v392H10706z" fill="#e3fae3"/><path d="M10706 440h458.37v392H10706zM10706 480h458.37M10935.18 480v352" stroke="#3a414a" stroke-width="2" fill="none"/><use xlink:href="#D" transform="matrix(1,0,0,1,10716,440) translate(181.075 23.6)"/><use xlink:href="#E" transform="matrix(1,0,0,1,10711,482.5) translate(0 17.1)"/><use xlink:href="#F" transform="matrix(1,0,0,1,10940.184567901235,482.5) translate(0 17.1)"/><use xlink:href="#G" transform="matrix(1,0,0,1,10711,514.5) translate(0 17.1)"/><use xlink:href="#c" transform="matrix(1,0,0,1,10940.184567901235,514.5) translate(0 17.1)"/><use xlink:href="#H" transform="matrix(1,0,0,1,10711,546.5) translate(0 17.1)"/><use xlink:href="#c" transform="matrix(1,0,0,1,10940.184567901235,546.5) translate(0 17.1)"/><use xlink:href="#I" transform="matrix(1,0,0,1,10711,578.5) translate(0 17.1)"/><use xlink:href="#m" transform="matrix(1,0,0,1,10940.184567901235,578.5) translate(0 17.1)"/><use xlink:href="#i" transform="matrix(1,0,0,1,10711,610.5) translate(0 17.1)"/><use xlink:href="#c" transform="matrix(1,0,0,1,10940.184567901235,610.5) translate(0 17.1)"/><use xlink:href="#J" transform="matrix(1,0,0,1,10711,642.5) translate(0 17.1)"/><use xlink:href="#x" transform="matrix(1,0,0,1,10940.184567901235,642.5) translate(0 17.1)"/><use xlink:href="#K" transform="matrix(1,0,0,1,10711,674.5) translate(0 17.1)"/><use xlink:href="#x" transform="matrix(1,0,0,1,10940.184567901235,674.5) translate(0 17.1)"/><use xlink:href="#n" transform="matrix(1,0,0,1,10711,706.5) translate(0 17.1)"/><use xlink:href="#o" transform="matrix(1,0,0,1,10940.184567901235,706.5) translate(0 17.1)"/><use xlink:href="#L" transform="matrix(1,0,0,1,10711,738.5) translate(0 17.1)"/><use xlink:href="#o" transform="matrix(1,0,0,1,10940.184567901235,738.5) translate(0 17.1)"/><use xlink:href="#M" transform="matrix(1,0,0,1,10711,770.5) translate(0 17.1)"/><use xlink:href="#N" transform="matrix(1,0,0,1,10940.184567901235,770.5) translate(0 17.1)"/><use xlink:href="#O" transform="matrix(1,0,0,1,10711,802.5) translate(0 17.1)"/><use xlink:href="#x" transform="matrix(1,0,0,1,10940.184567901235,802.5) translate(0 17.1)"/><path d="M10706 920h458.37v136H10706z" fill="#ced4db"/><path d="M10706 920h458.37v136H10706zM10706 960h458.37M10935.18 960v96" stroke="#3a414a" stroke-width="2" fill="none"/><use xlink:href="#P" transform="matrix(1,0,0,1,10716,920) translate(181.075 23.6)"/><use xlink:href="#G" transform="matrix(1,0,0,1,10711,962.5) translate(0 17.1)"/><use xlink:href="#c" transform="matrix(1,0,0,1,10940.184567901235,962.5) translate(0 17.1)"/><use xlink:href="#H" transform="matrix(1,0,0,1,10711,994.5) translate(0 17.1)"/><use xlink:href="#c" transform="matrix(1,0,0,1,10940.184567901235,994.5) translate(0 17.1)"/><use xlink:href="#Q" transform="matrix(1,0,0,1,10711,1026.5) translate(0 17.1)"/><use xlink:href="#R" transform="matrix(1,0,0,1,10940.184567901235,1026.5) translate(0 17.1)"/><path d="M10706 1140h458.37v136H10706z" fill="#ced4db"/><path d="M10706 1140h458.37v136H10706zM10706 1180h458.37M10935.18 1180v96" stroke="#3a414a" stroke-width="2" fill="none"/><use xlink:href="#S" transform="matrix(1,0,0,1,10716,1140) translate(183.025 23.6)"/><use xlink:href="#G" transform="matrix(1,0,0,1,10711,1182.5) translate(0 17.1)"/><use xlink:href="#c" transform="matrix(1,0,0,1,10940.184567901235,1182.5) translate(0 17.1)"/><use xlink:href="#T" transform="matrix(1,0,0,1,10711,1214.5) translate(0 17.1)"/><use xlink:href="#c" transform="matrix(1,0,0,1,10940.184567901235,1214.5) translate(0 17.1)"/><use xlink:href="#U" transform="matrix(1,0,0,1,10711,1246.5) translate(0 17.1)"/><use xlink:href="#m" transform="matrix(1,0,0,1,10940.184567901235,1246.5) translate(0 17.1)"/><path d="M10706 1360h458.37v168H10706z" fill="#ced4db"/><path d="M10706 1360h458.37v168H10706zM10706 1400h458.37M10935.18 1400v128" stroke="#3a414a" stroke-width="2" fill="none"/><use xlink:href="#V" transform="matrix(1,0,0,1,10716,1360) translate(173.125 23.6)"/><use xlink:href="#W" transform="matrix(1,0,0,1,10711,1402.5) translate(0 17.1)"/><use xlink:href="#F" transform="matrix(1,0,0,1,10940.184567901235,1402.5) translate(0 17.1)"/><use xlink:href="#T" transform="matrix(1,0,0,1,10711,1434.5) translate(0 17.1)"/><use xlink:href="#c" transform="matrix(1,0,0,1,10940.184567901235,1434.5) translate(0 17.1)"/><use xlink:href="#n" transform="matrix(1,0,0,1,10711,1466.5) translate(0 17.1)"/><use xlink:href="#o" transform="matrix(1,0,0,1,10940.184567901235,1466.5) translate(0 17.1)"/><use xlink:href="#L" transform="matrix(1,0,0,1,10711,1498.5) translate(0 17.1)"/><use xlink:href="#o" transform="matrix(1,0,0,1,10940.184567901235,1498.5) translate(0 17.1)"/><path d="M9978 740h400v200h-400z" fill="#e3fae3"/><path d="M9978 740h400v200h-400zM9978 780h400M10178 780v160" stroke="#3a414a" stroke-width="2" fill="none"/><use xlink:href="#X" transform="matrix(1,0,0,1,9988,740) translate(155.05 23.6)"/><use xlink:href="#Y" transform="matrix(1,0,0,1,9983,782.5) translate(0 17.1)"/><use xlink:href="#F" transform="matrix(1,0,0,1,10183,782.5) translate(0 17.1)"/><use xlink:href="#Z" transform="matrix(1,0,0,1,9983,814.5) translate(0 17.1)"/><use xlink:href="#F" transform="matrix(1,0,0,1,10183,814.5) translate(0 17.1)"/><use xlink:href="#w" transform="matrix(1,0,0,1,9983,846.5) translate(0 17.1)"/><use xlink:href="#x" transform="matrix(1,0,0,1,10183,846.5) translate(0 17.1)"/><use xlink:href="#T" transform="matrix(1,0,0,1,9983,878.5) translate(0 17.1)"/><use xlink:href="#c" transform="matrix(1,0,0,1,10183,878.5) translate(0 17.1)"/><use xlink:href="#n" transform="matrix(1,0,0,1,9983,910.5) translate(0 17.1)"/><use xlink:href="#o" transform="matrix(1,0,0,1,10183,910.5) translate(0 17.1)"/><path d="M9978 440h400v232h-400z" fill="#e3fae3"/><path d="M9978 440h400v232h-400zM9978 480h400M10178 480v192" stroke="#3a414a" stroke-width="2" fill="none"/><use xlink:href="#aa" transform="matrix(1,0,0,1,9988,440) translate(138.8 23.6)"/><use xlink:href="#Y" transform="matrix(1,0,0,1,9983,482.5) translate(0 17.1)"/><use xlink:href="#F" transform="matrix(1,0,0,1,10183,482.5) translate(0 17.1)"/><use xlink:href="#Z" transform="matrix(1,0,0,1,9983,514.5) translate(0 17.1)"/><use xlink:href="#F" transform="matrix(1,0,0,1,10183,514.5) translate(0 17.1)"/><use xlink:href="#ab" transform="matrix(1,0,0,1,9983,546.5) translate(0 17.1)"/><use xlink:href="#c" transform="matrix(1,0,0,1,10183,546.5) translate(0 17.1)"/><use xlink:href="#ac" transform="matrix(1,0,0,1,9983,578.5) translate(0 17.1)"/><use xlink:href="#m" transform="matrix(1,0,0,1,10183,578.5) translate(0 17.1)"/><use xlink:href="#n" transform="matrix(1,0,0,1,9983,610.5) translate(0 17.1)"/><use xlink:href="#o" transform="matrix(1,0,0,1,10183,610.5) translate(0 17.1)"/><use xlink:href="#L" transform="matrix(1,0,0,1,9983,642.5) translate(0 17.1)"/><use xlink:href="#o" transform="matrix(1,0,0,1,10183,642.5) translate(0 17.1)"/><path d="M9978 1008h400v232h-400z" fill="#e3fae3"/><path d="M9978 1008h400v232h-400zM9978 1048h400M10178 1048v192" stroke="#3a414a" stroke-width="2" fill="none"/><use xlink:href="#ad" transform="matrix(1,0,0,1,9988,1008) translate(148.525 23.6)"/><use xlink:href="#ae" transform="matrix(1,0,0,1,9983,1050.5) translate(0 17.1)"/><use xlink:href="#F" transform="matrix(1,0,0,1,10183,1050.5) translate(0 17.1)"/><use xlink:href="#af" transform="matrix(1,0,0,1,9983,1082.5) translate(0 17.1)"/><use xlink:href="#F" transform="matrix(1,0,0,1,10183,1082.5) translate(0 17.1)"/><use xlink:href="#ab" transform="matrix(1,0,0,1,9983,1114.5) translate(0 17.1)"/><use xlink:href="#c" transform="matrix(1,0,0,1,10183,1114.5) translate(0 17.1)"/><use xlink:href="#J" transform="matrix(1,0,0,1,9983,1146.5) translate(0 17.1)"/><use xlink:href="#x" transform="matrix(1,0,0,1,10183,1146.5) translate(0 17.1)"/><use xlink:href="#ag" transform="matrix(1,0,0,1,9983,1178.5) translate(0 17.1)"/><use xlink:href="#x" transform="matrix(1,0,0,1,10183,1178.5) translate(0 17.1)"/><use xlink:href="#n" transform="matrix(1,0,0,1,9983,1210.5) translate(0 17.1)"/><use xlink:href="#o" transform="matrix(1,0,0,1,10183,1210.5) translate(0 17.1)"/><path d="M9978 108h400v200h-400z" fill="#e3fae3"/><path d="M9978 108h400v200h-400zM9978 148h400M10178 148v160" stroke="#3a414a" stroke-width="2" fill="none"/><use xlink:href="#ah" transform="matrix(1,0,0,1,9988,108) translate(127.82499999999999 23.6)"/><use xlink:href="#ai" transform="matrix(1,0,0,1,9983,150.5) translate(0 17.1)"/><use xlink:href="#aj" transform="matrix(1,0,0,1,10183,150.5) translate(0 17.1)"/><use xlink:href="#ak" transform="matrix(1,0,0,1,9983,182.5) translate(0 17.1)"/><use xlink:href="#al" transform="matrix(1,0,0,1,10183,182.5) translate(0 17.1)"/><use xlink:href="#am" transform="matrix(1,0,0,1,9983,214.5) translate(0 17.1)"/><use xlink:href="#c" transform="matrix(1,0,0,1,10183,214.5) translate(0 17.1)"/><use xlink:href="#T" transform="matrix(1,0,0,1,9983,246.5) translate(0 17.1)"/><use xlink:href="#c" transform="matrix(1,0,0,1,10183,246.5) translate(0 17.1)"/><use xlink:href="#n" transform="matrix(1,0,0,1,9983,278.5) translate(0 17.1)"/><use xlink:href="#o" transform="matrix(1,0,0,1,10183,278.5) translate(0 17.1)"/><path d="M9084 880h505.63v200H9084z" fill="#ced4db"/><path d="M9084 880h505.63v200H9084zM9084 920h505.63M9336.8 920v160" stroke="#3a414a" stroke-width="2" fill="none"/><use xlink:href="#an" transform="matrix(1,0,0,1,9094,880) translate(176.625 23.6)"/><use xlink:href="#af" transform="matrix(1,0,0,1,9089,922.5) translate(0 17.1)"/><use xlink:href="#ao" transform="matrix(1,0,0,1,9341.813580246913,922.5) translate(0 17.1)"/><use xlink:href="#ap" transform="matrix(1,0,0,1,9089,954.5) translate(0 17.1)"/><use xlink:href="#o" transform="matrix(1,0,0,1,9341.813580246913,954.5) translate(0 17.1)"/><use xlink:href="#aq" transform="matrix(1,0,0,1,9089,986.5) translate(0 17.1)"/><use xlink:href="#x" transform="matrix(1,0,0,1,9341.813580246913,986.5) translate(0 17.1)"/><use xlink:href="#ab" transform="matrix(1,0,0,1,9089,1018.5) translate(0 17.1)"/><use xlink:href="#c" transform="matrix(1,0,0,1,9341.813580246913,1018.5) translate(0 17.1)"/><use xlink:href="#ar" transform="matrix(1,0,0,1,9089,1050.5) translate(0 17.1)"/><use xlink:href="#as" transform="matrix(1,0,0,1,9341.813580246913,1050.5) translate(0 17.1)"/><path d="M9079.8 1232h514.03v136H9079.8z" fill="#ced4db"/><path d="M9079.8 1232h514.03v136H9079.8zM9079.8 1272h514.03M9336.8 1272v96" stroke="#3a414a" stroke-width="2" fill="none"/><use xlink:href="#ar" transform="matrix(1,0,0,1,9089.796296296296,1232) translate(211.55 23.6)"/><use xlink:href="#at" transform="matrix(1,0,0,1,9084.796296296296,1274.5) translate(0 17.1)"/><use xlink:href="#m" transform="matrix(1,0,0,1,9341.813580246913,1274.5) translate(0 17.1)"/><use xlink:href="#au" transform="matrix(1,0,0,1,9084.796296296296,1306.5) translate(0 17.1)"/><use xlink:href="#m" transform="matrix(1,0,0,1,9341.813580246913,1306.5) translate(0 17.1)"/><use xlink:href="#av" transform="matrix(1,0,0,1,9084.796296296296,1338.5) translate(0 17.1)"/><use xlink:href="#o" transform="matrix(1,0,0,1,9341.813580246913,1338.5) translate(0 17.1)"/><path d="M9877-423.93h-524.72a12 12 0 0 0-12 12V147.5" stroke="#333" fill="none"/><path d="M9887-433.93v20M9897-423.93h-20M9877-433.93v20" stroke="#333" fill="#fff"/><path d="M9330.28 186.78l10-20 10 20" stroke="#333" fill="#fff" fill-opacity="0"/><path d="M9340.28 186.78v-20M9350.28 156.78c0 5.52-4.48 10-10 10s-10-4.48-10-10c0-5.53 4.48-10 10-10s10 4.47 10 10" stroke="#333" fill="#fff"/><use xlink:href="#aw" transform="matrix(1,0,0,1,9352.334116137741,-449.52015222760275) translate(0 14.4)"/><path d="M10177.5-132.5h-.95l.02-26.7h.95zm.06-94.5l-.03 46.2h-.95l.03-46.2z" stroke="#333" stroke-width=".05" fill="#333"/><path fill="#fff"/><path d="M10187.1-237.47v.95h-20v-.96z" stroke="#333" stroke-width=".05" fill="#333"/><path fill="#fff"/><path d="M10177.57-247v20h-.96l.02-20z" stroke="#333" stroke-width=".05" fill="#333"/><path fill="#fff"/><path d="M10187.08-227.47v.95h-20v-.96z" stroke="#333" stroke-width=".05" fill="#333"/><path d="M10167-93.23l10-20 10 20" fill="#fff" fill-opacity="0"/><path d="M10187.42-93.43l-.84.43-9.57-19.16-9.58 19.14-.84-.42 10.43-20.85z" stroke="#333" stroke-width=".05" fill="#333"/><path fill="#fff"/><path d="M10177.5-113.22l-.02 20h-.95v-20z" stroke="#333" stroke-width=".05" fill="#333"/><path d="M10187.02-123.22l-.5 3.16-1.43 2.74-2.18 2.17-2.74 1.42-3.16.5-3.16-.5-2.75-1.42-2.15-2.17-1.42-2.74-.5-3.16.5-3.16 1.42-2.75 2.16-2.16 2.76-1.4 3.16-.52 3.16.5 2.74 1.43 2.17 2.17 1.4 2.75.52 3.16" fill="#fff"/><path d="M10180.33-133.17l2.88 1.5 2.28 2.26 1.5 2.87.5 3.23-.46.08.47.07-.53 3.24-1.5 2.87-2.26 2.27-2.87 1.48-3.3.54-3.32-.54-2.87-1.48-2.27-2.27-1.5-2.88-.52-3.32.53-3.3 1.5-2.9 2.26-2.26 2.88-1.5 3.32-.53zm-6.32.9l-2.6 1.36-2.06 2.05-1.35 2.62-.5 3 .5 3.02 1.34 2.6 2.06 2.06 2.6 1.35 3.02.5 3-.5 2.62-1.34 2.06-2.06 1.35-2.6.5-3.02-.5-3-1.35-2.63-2.06-2.06-2.6-1.36-3.02-.48z" stroke="#333" stroke-width=".05" fill="#333"/><use xlink:href="#aw" transform="matrix(1,0,0,1,10160.573456790122,-180.79999999999998) translate(0 14.4)"/><path d="M10477.2-423.93h446.3a12 12 0 0 1 12 12V147.5" stroke="#333" fill="none"/><path d="M10467.2-413.93v-20M10457.2-423.93h20M10477.2-413.93v-20" stroke="#333" fill="#fff"/><path d="M10925.5 186.78l10-20 10 20" stroke="#333" fill="#fff" fill-opacity="0"/><path d="M10935.5 186.78v-20M10945.5 156.78c0 5.52-4.46 10-10 10-5.5 0-10-4.48-10-10 0-5.53 4.5-10 10-10 5.54 0 10 4.47 10 10" stroke="#333" fill="#fff"/><use xlink:href="#aw" transform="matrix(1,0,0,1,10900.657402830891,-449.52834031543546) translate(0 14.4)"/><path d="M10685 759.6h-266.5" stroke="#333" fill="none"/><path d="M10695 749.6v20M10705 759.6h-20M10685 749.6v20" stroke="#333" fill="#fff"/><path d="M10379.22 749.6l20 10-20 10" stroke="#333" fill="#fff" fill-opacity="0"/><path d="M10379.22 759.6h20M10419.22 759.6c0 5.52-4.47 10-10 10-5.52 0-10-4.48-10-10s4.48-10 10-10c5.53 0 10 4.48 10 10" stroke="#333" fill="#fff"/><use xlink:href="#ax" transform="matrix(1,0,0,1,10429.974123441578,734.0000000000001) translate(0 14.4)"/><path d="M10689.97 459.63h-271.47" stroke="#333" fill="none"/><path d="M10699.97 449.63v20M10709.97 459.63h-20M10689.97 449.63v20" stroke="#333" fill="#fff"/><path d="M10379.23 449.63l20 10-20 10" stroke="#333" fill="#fff" fill-opacity="0"/><path d="M10379.23 459.63h20M10419.23 459.63c0 5.52-4.48 10-10 10-5.53 0-10-4.48-10-10s4.47-10 10-10c5.52 0 10 4.48 10 10" stroke="#333" fill="#fff"/><use xlink:href="#ay" transform="matrix(1,0,0,1,10422.288133984968,434.0309161682953) translate(0 14.4)"/><path d="M10935.16 853v26.5" stroke="#333" fill="none"/><path d="M10925.15 843h20M10935.15 833v20M10925.16 853h20" stroke="#333" fill="#fff"/><path d="M10925.18 918.78l10-20 10 20" stroke="#333" fill="#fff" fill-opacity="0"/><path d="M10935.18 918.78v-20M10945.17 888.78c0 5.52-4.48 10-10 10s-10-4.48-10-10c0-5.53 4.48-10 10-10s10 4.47 10 10" stroke="#333" fill="#fff"/><use xlink:href="#az" transform="matrix(1,0,0,1,10874.19916810423,851.3371855500221) translate(0 21.333333333333336)"/><path d="M10935.18 1077v22.5" stroke="#333" fill="none"/><path d="M10925.18 1067h20M10935.18 1057v20M10925.18 1077h20" stroke="#333" fill="#fff"/><path d="M10925.18 1138.78l10-20 10 20" stroke="#333" fill="#fff" fill-opacity="0"/><path d="M10935.18 1138.78v-20M10945.18 1108.78c0 5.52-4.47 10-10 10-5.52 0-10-4.48-10-10 0-5.53 4.48-10 10-10 5.53 0 10 4.47 10 10" stroke="#333" fill="#fff"/><use xlink:href="#az" transform="matrix(1,0,0,1,10874.221604938271,1075.183291237115) translate(0 21.333333333333336)"/><path d="M10935.18 1297v22.5" stroke="#333" fill="none"/><path d="M10925.18 1287h20M10935.18 1277v20M10925.18 1297h20" stroke="#333" fill="#fff"/><path d="M10925.18 1358.78l10-20 10 20" stroke="#333" fill="#fff" fill-opacity="0"/><path d="M10935.18 1358.78v-20M10945.18 1328.78c0 5.52-4.47 10-10 10-5.52 0-10-4.48-10-10 0-5.53 4.48-10 10-10 5.53 0 10 4.47 10 10" stroke="#333" fill="#fff"/><use xlink:href="#az" transform="matrix(1,0,0,1,10874.221604938271,1297.435031310237) translate(0 21.333333333333336)"/><path d="M9502 345v438.78a12 12 0 0 0 12 12h423.5" stroke="#333" fill="none"/><path d="M9492 335h20M9502 325v20M9492 345h20" stroke="#333" fill="#fff"/><path d="M9976.78 805.78l-20-10 20-10" stroke="#333" fill="#fff" fill-opacity="0"/><path d="M9976.78 795.78h-20M9956.78 795.78c0 5.52-4.48 10-10 10-5.53 0-10-4.48-10-10s4.47-10 10-10c5.52 0 10 4.48 10 10" stroke="#333" fill="#fff"/><use xlink:href="#aA" transform="matrix(1,0,0,1,9821.16377402636,770.18) translate(0 14.4)"/><path d="M9541.63 345v138.7a12 12 0 0 0 12 12h383.87" stroke="#333" fill="none"/><path d="M9531.63 335h20M9541.63 325v20M9531.63 345h20" stroke="#333" fill="#fff"/><path d="M9976.78 505.7l-20-10 20-10" stroke="#333" fill="#fff" fill-opacity="0"/><path d="M9976.78 495.7h-20M9956.78 495.7c0 5.52-4.48 10-10 10-5.53 0-10-4.48-10-10s4.47-10 10-10c5.52 0 10 4.48 10 10" stroke="#333" fill="#fff"/><use xlink:href="#aB" transform="matrix(1,0,0,1,9811.990614874863,470.1) translate(0 14.4)"/><path d="M9458.17 345v483.37a12 12 0 0 0 12 12H9798a12 12 0 0 1 12 12v199.6a12 12 0 0 0 12 12h115.5" stroke="#333" fill="none"/><path d="M9448.17 335h20M9458.17 325v20M9448.17 345h20" stroke="#333" fill="#fff"/><path d="M9976.78 1073.98l-20-10 20-10" stroke="#333" fill="#fff" fill-opacity="0"/><path d="M9976.78 1063.98h-20M9956.78 1063.98c0 5.53-4.48 10-10 10-5.53 0-10-4.47-10-10 0-5.52 4.47-10 10-10 5.52 0 10 4.48 10 10" stroke="#333" fill="#fff"/><use xlink:href="#aC" transform="matrix(1,0,0,1,9818,1030.5394608699014) translate(0 14.4)"/><path d="M9336.8 1101v90.5" stroke="#333" fill="none"/><path d="M9326.8 1091h20M9336.8 1081v20M9326.8 1101h20" stroke="#333" fill="#fff"/><path d="M9326.8 1230.78l10-20 10 20" stroke="#333" fill="#fff" fill-opacity="0"/><path d="M9336.8 1230.78v-20M9346.8 1200.78c0 5.52-4.46 10-10 10-5.5 0-10-4.48-10-10 0-5.53 4.5-10 10-10 5.54 0 10 4.47 10 10" stroke="#333" fill="#fff"/><use xlink:href="#az" transform="matrix(1,0,0,1,9285.85061728395,1128.2671564652246) translate(0 21.333333333333336)"/><path d="M10678.44 195.94H10458a12 12 0 0 1-12-12v-8.16a12 12 0 0 0-12-12h-15.5" stroke="#333" fill="none"/><path d="M10688.44 185.94v20M10698.44 195.94h-20M10678.44 185.94v20" stroke="#333" fill="#fff"/><path d="M10379.22 153.78l20 10-20 10" stroke="#333" fill="#fff" fill-opacity="0"/><path d="M10379.22 163.78h20M10419.22 163.78c0 5.52-4.47 10-10 10-5.52 0-10-4.48-10-10s4.48-10 10-10c5.53 0 10 4.48 10 10" stroke="#333" fill="#fff"/><use xlink:href="#aD" transform="matrix(1,0,0,1,10462.746100840584,170.33999999999997) translate(0 14.4)"/><path d="M9615.1 364.5v3.5a12 12 0 0 0 12 12h1155.42a12 12 0 0 1 12 12v7.5" stroke="#333" fill="none"/><path d="M9625.1 325.22l-10 20-10-20" stroke="#333" fill="#fff" fill-opacity="0"/><path d="M9615.1 325.22v20M9625.1 355.22c0 5.53-4.47 10-10 10-5.52 0-10-4.47-10-10 0-5.52 4.48-10 10-10 5.53 0 10 4.48 10 10" stroke="#333" fill="#fff"/><path d="M10784.52 438.78l10-20 10 20" stroke="#333" fill="#fff" fill-opacity="0"/><path d="M10794.52 438.78v-20M10804.52 408.78c0 5.52-4.48 10-10 10s-10-4.48-10-10c0-5.53 4.48-10 10-10s10 4.47 10 10" stroke="#333" fill="#fff"/><use xlink:href="#aE" transform="matrix(1,0,0,1,9649.912350206027,354.4) translate(0 14.4)"/><path d="M9957 195.94h-15.05a5.96 5.96 0 0 0-5.95 5.96 5.96 5.96 0 0 1-5.95 5.95h-229" stroke="#333" fill="none"/><path d="M9967 185.94v20M9977 195.94h-20M9957 185.94v20" stroke="#333" fill="#fff"/><path d="M9661.78 197.85l20 10-20 10" stroke="#333" fill="#fff" fill-opacity="0"/><path d="M9661.78 207.85h20M9701.78 207.85c0 5.52-4.47 10-10 10-5.52 0-10-4.48-10-10s4.48-10 10-10c5.53 0 10 4.48 10 10" stroke="#333" fill="#fff"/><use xlink:href="#aF" transform="matrix(1,0,0,1,9863.740368321916,182.2501312248919) translate(0 14.4)"/><path d="M9341 345v494.5" stroke="#333" fill="none"/><path d="M9331 335h20M9341 325v20M9331 345h20" stroke="#333" fill="#fff"/><path d="M9331 878.78l10-20 10 20" stroke="#333" fill="#fff" fill-opacity="0"/><path d="M9341 878.78v-20M9351 848.78c0 5.52-4.48 10-10 10s-10-4.48-10-10c0-5.53 4.48-10 10-10s10 4.47 10 10" stroke="#333" fill="#fff"/><path d="M10935.5 345v54.5" stroke="#333" fill="none"/><path d="M10925.5 335h20M10935.5 325v20M10925.5 345h20" stroke="#333" fill="#fff"/><path d="M10925.5 438.78l10-20 10 20" stroke="#333" fill="#fff" fill-opacity="0"/><path d="M10935.5 438.78v-20M10945.5 408.78c0 5.52-4.46 10-10 10-5.5 0-10-4.48-10-10 0-5.53 4.5-10 10-10 5.54 0 10 4.47 10 10" stroke="#333" fill="#fff"/><path d="M10780 340h240v60h-240z" fill="none"/><use xlink:href="#aG" transform="matrix(1,0,0,1,10780,340) translate(88.5 22.799999999999997)"/><use xlink:href="#aH" transform="matrix(1,0,0,1,10780,340) translate(120 44.4)"/><path d="M9188 600h240v60h-240z" fill="none"/><use xlink:href="#az" transform="matrix(1,0,0,1,9188,600) translate(98.51851851851852 35.333333333333336)"/><defs><path d="M232-93c-1 65-40 97-104 97C67 4 28-28 28-90v-158h33c8 89-33 224 67 224 102 0 64-133 71-224h33v155" id="aI"/><path d="M185-189c-5-48-123-54-124 2 14 75 158 14 163 119 3 78-121 87-175 55-17-10-28-26-33-46l33-7c5 56 141 63 141-1 0-78-155-14-162-118-5-82 145-84 179-34 5 7 8 16 11 25" id="aJ"/><path d="M30 0v-248h187v28H63v79h144v27H63v87h162V0H30" id="aK"/><path d="M233-177c-1 41-23 64-60 70L243 0h-38l-65-103H63V0H30v-248c88 3 205-21 203 71zM63-129c60-2 137 13 137-47 0-61-80-42-137-45v92" id="aL"/><g id="a"><use transform="matrix(0.05,0,0,0.05,0,0)" xlink:href="#aI"/><use transform="matrix(0.05,0,0,0.05,12.950000000000001,0)" xlink:href="#aJ"/><use transform="matrix(0.05,0,0,0.05,24.950000000000003,0)" xlink:href="#aK"/><use transform="matrix(0.05,0,0,0.05,36.95,0)" xlink:href="#aL"/></g><path d="M101-234c-31-9-42 10-38 44h38v23H63V0H32v-167H5v-23h27c-7-52 17-82 69-68v24" id="aM"/><path d="M117-194c89-4 53 116 60 194h-32v-121c0-31-8-49-39-48C34-167 62-67 57 0H25l-1-190h30c1 10-1 24 2 32 11-22 29-35 61-36" id="aN"/><path d="M141-36C126-15 110 5 73 4 37 3 15-17 15-53c-1-64 63-63 125-63 3-35-9-54-41-54-24 1-41 7-42 31l-33-3c5-37 33-52 76-52 45 0 72 20 72 64v82c-1 20 7 32 28 27v20c-31 9-61-2-59-35zM48-53c0 20 12 33 32 33 41-3 63-29 60-74-43 2-92-5-92 41" id="aO"/><path d="M210-169c-67 3-38 105-44 169h-31v-121c0-29-5-50-35-48C34-165 62-65 56 0H25l-1-190h30c1 10-1 24 2 32 10-44 99-50 107 0 11-21 27-35 58-36 85-2 47 119 55 194h-31v-121c0-29-5-49-35-48" id="aP"/><path d="M100-194c63 0 86 42 84 106H49c0 40 14 67 53 68 26 1 43-12 49-29l28 8c-11 28-37 45-77 45C44 4 14-33 15-96c1-61 26-98 85-98zm52 81c6-60-76-77-97-28-3 7-6 17-6 28h103" id="aQ"/><g id="b"><use transform="matrix(0.05,0,0,0.05,0,0)" xlink:href="#aM"/><use transform="matrix(0.05,0,0,0.05,5,0)" xlink:href="#aN"/><use transform="matrix(0.05,0,0,0.05,15,0)" xlink:href="#aO"/><use transform="matrix(0.05,0,0,0.05,25,0)" xlink:href="#aP"/><use transform="matrix(0.05,0,0,0.05,39.95,0)" xlink:href="#aQ"/></g><path d="M59-47c-2 24 18 29 38 22v24C64 9 27 4 27-40v-127H5v-23h24l9-43h21v43h35v23H59v120" id="aR"/><path d="M114-163C36-179 61-72 57 0H25l-1-190h30c1 12-1 29 2 39 6-27 23-49 58-41v29" id="aS"/><path d="M24-231v-30h32v30H24zM24 0v-190h32V0H24" id="aT"/><path d="M177-190C167-65 218 103 67 71c-23-6-38-20-44-43l32-5c15 47 100 32 89-28v-30C133-14 115 1 83 1 29 1 15-40 15-95c0-56 16-97 71-98 29-1 48 16 59 35 1-10 0-23 2-32h30zM94-22c36 0 50-32 50-73 0-42-14-75-50-75-39 0-46 34-46 75s6 73 46 73" id="aU"/><g id="c"><use transform="matrix(0.05,0,0,0.05,0,0)" xlink:href="#aJ"/><use transform="matrix(0.05,0,0,0.05,12,0)" xlink:href="#aR"/><use transform="matrix(0.05,0,0,0.05,17,0)" xlink:href="#aS"/><use transform="matrix(0.05,0,0,0.05,22.95,0)" xlink:href="#aT"/><use transform="matrix(0.05,0,0,0.05,26.899999999999995,0)" xlink:href="#aN"/><use transform="matrix(0.05,0,0,0.05,36.9,0)" xlink:href="#aU"/></g><path d="M24 0v-261h32V0H24" id="aV"/><g id="d"><use transform="matrix(0.05,0,0,0.05,0,0)" xlink:href="#aV"/><use transform="matrix(0.05,0,0,0.05,3.95,0)" xlink:href="#aN"/><use transform="matrix(0.05,0,0,0.05,13.949999999999998,0)" xlink:href="#aO"/><use transform="matrix(0.05,0,0,0.05,23.95,0)" xlink:href="#aP"/><use transform="matrix(0.05,0,0,0.05,38.9,0)" xlink:href="#aQ"/></g><g id="e"><use transform="matrix(0.05,0,0,0.05,0,0)" xlink:href="#aQ"/><use transform="matrix(0.05,0,0,0.05,10,0)" xlink:href="#aP"/><use transform="matrix(0.05,0,0,0.05,24.950000000000003,0)" xlink:href="#aO"/><use transform="matrix(0.05,0,0,0.05,34.95,0)" xlink:href="#aT"/><use transform="matrix(0.05,0,0,0.05,38.900000000000006,0)" xlink:href="#aV"/></g><path d="M115-194c55 1 70 41 70 98S169 2 115 4C84 4 66-9 55-30l1 105H24l-1-265h31l2 30c10-21 28-34 59-34zm-8 174c40 0 45-34 45-75s-6-73-45-74c-42 0-51 32-51 76 0 43 10 73 51 73" id="aW"/><path d="M135-143c-3-34-86-38-87 0 15 53 115 12 119 90S17 21 10-45l28-5c4 36 97 45 98 0-10-56-113-15-118-90-4-57 82-63 122-42 12 7 21 19 24 35" id="aX"/><path d="M206 0h-36l-40-164L89 0H53L-1-190h32L70-26l43-164h34l41 164 42-164h31" id="aY"/><path d="M100-194c62-1 85 37 85 99 1 63-27 99-86 99S16-35 15-95c0-66 28-99 85-99zM99-20c44 1 53-31 53-75 0-43-8-75-51-75s-53 32-53 75 10 74 51 75" id="aZ"/><path d="M85-194c31 0 48 13 60 33l-1-100h32l1 261h-30c-2-10 0-23-3-31C134-8 116 4 85 4 32 4 16-35 15-94c0-66 23-100 70-100zm9 24c-40 0-46 34-46 75 0 40 6 74 45 74 42 0 51-32 51-76 0-42-9-74-50-73" id="ba"/><g id="f"><use transform="matrix(0.05,0,0,0.05,0,0)" xlink:href="#aW"/><use transform="matrix(0.05,0,0,0.05,10,0)" xlink:href="#aO"/><use transform="matrix(0.05,0,0,0.05,20,0)" xlink:href="#aX"/><use transform="matrix(0.05,0,0,0.05,29,0)" xlink:href="#aX"/><use transform="matrix(0.05,0,0,0.05,38,0)" xlink:href="#aY"/><use transform="matrix(0.05,0,0,0.05,50.95,0)" xlink:href="#aZ"/><use transform="matrix(0.05,0,0,0.05,60.95,0)" xlink:href="#aS"/><use transform="matrix(0.05,0,0,0.05,66.9,0)" xlink:href="#ba"/></g><path d="M212-179c-10-28-35-45-73-45-59 0-87 40-87 99 0 60 29 101 89 101 43 0 62-24 78-52l27 14C228-24 195 4 139 4 59 4 22-46 18-125c-6-104 99-153 187-111 19 9 31 26 39 46" id="bb"/><g id="g"><use transform="matrix(0.05,0,0,0.05,0,0)" xlink:href="#aW"/><use transform="matrix(0.05,0,0,0.05,10,0)" xlink:href="#aO"/><use transform="matrix(0.05,0,0,0.05,20,0)" xlink:href="#aX"/><use transform="matrix(0.05,0,0,0.05,29,0)" xlink:href="#aX"/><use transform="matrix(0.05,0,0,0.05,38,0)" xlink:href="#aY"/><use transform="matrix(0.05,0,0,0.05,50.95,0)" xlink:href="#aZ"/><use transform="matrix(0.05,0,0,0.05,60.95,0)" xlink:href="#aS"/><use transform="matrix(0.05,0,0,0.05,66.9,0)" xlink:href="#ba"/><use transform="matrix(0.05,0,0,0.05,76.9,0)" xlink:href="#bb"/><use transform="matrix(0.05,0,0,0.05,89.85000000000001,0)" xlink:href="#aZ"/><use transform="matrix(0.05,0,0,0.05,99.85000000000001,0)" xlink:href="#aN"/><use transform="matrix(0.05,0,0,0.05,109.85000000000001,0)" xlink:href="#aM"/><use transform="matrix(0.05,0,0,0.05,114.85000000000001,0)" xlink:href="#aT"/><use transform="matrix(0.05,0,0,0.05,118.80000000000001,0)" xlink:href="#aS"/><use transform="matrix(0.05,0,0,0.05,124.75,0)" xlink:href="#aP"/></g><g id="h"><use transform="matrix(0.05,0,0,0.05,0,0)" xlink:href="#aS"/><use transform="matrix(0.05,0,0,0.05,5.95,0)" xlink:href="#aZ"/><use transform="matrix(0.05,0,0,0.05,15.949999999999998,0)" xlink:href="#aV"/><use transform="matrix(0.05,0,0,0.05,19.9,0)" xlink:href="#aQ"/></g><path d="M106-169C34-169 62-67 57 0H25v-261h32l-1 103c12-21 28-36 61-36 89 0 53 116 60 194h-32v-121c2-32-8-49-39-48" id="bc"/><g id="i"><use transform="matrix(0.05,0,0,0.05,0,0)" xlink:href="#aW"/><use transform="matrix(0.05,0,0,0.05,10,0)" xlink:href="#bc"/><use transform="matrix(0.05,0,0,0.05,20,0)" xlink:href="#aZ"/><use transform="matrix(0.05,0,0,0.05,30,0)" xlink:href="#aR"/><use transform="matrix(0.05,0,0,0.05,35,0)" xlink:href="#aZ"/></g><g id="j"><use transform="matrix(0.05,0,0,0.05,0,0)" xlink:href="#bc"/><use transform="matrix(0.05,0,0,0.05,10,0)" xlink:href="#aQ"/><use transform="matrix(0.05,0,0,0.05,20,0)" xlink:href="#aO"/><use transform="matrix(0.05,0,0,0.05,30,0)" xlink:href="#ba"/><use transform="matrix(0.05,0,0,0.05,40,0)" xlink:href="#aV"/><use transform="matrix(0.05,0,0,0.05,43.95,0)" xlink:href="#aT"/><use transform="matrix(0.05,0,0,0.05,47.900000000000006,0)" xlink:href="#aN"/><use transform="matrix(0.05,0,0,0.05,57.900000000000006,0)" xlink:href="#aQ"/></g><path d="M84 4C-5 8 30-112 23-190h32v120c0 31 7 50 39 49 72-2 45-101 50-169h31l1 190h-30c-1-10 1-25-2-33-11 22-28 36-60 37" id="bd"/><g id="k"><use transform="matrix(0.05,0,0,0.05,0,0)" xlink:href="#aV"/><use transform="matrix(0.05,0,0,0.05,3.95,0)" xlink:href="#aO"/><use transform="matrix(0.05,0,0,0.05,13.949999999999998,0)" xlink:href="#aN"/><use transform="matrix(0.05,0,0,0.05,23.95,0)" xlink:href="#aU"/><use transform="matrix(0.05,0,0,0.05,33.95,0)" xlink:href="#bd"/><use transform="matrix(0.05,0,0,0.05,43.95,0)" xlink:href="#aO"/><use transform="matrix(0.05,0,0,0.05,53.95,0)" xlink:href="#aU"/><use transform="matrix(0.05,0,0,0.05,63.95,0)" xlink:href="#aQ"/></g><path d="M143 0L79-87 56-68V0H24v-261h32v163l83-92h37l-77 82L181 0h-38" id="be"/><g id="l"><use transform="matrix(0.05,0,0,0.05,0,0)" xlink:href="#aV"/><use transform="matrix(0.05,0,0,0.05,3.95,0)" xlink:href="#aT"/><use transform="matrix(0.05,0,0,0.05,7.9,0)" xlink:href="#aN"/><use transform="matrix(0.05,0,0,0.05,17.9,0)" xlink:href="#be"/><use transform="matrix(0.05,0,0,0.05,26.899999999999995,0)" xlink:href="#aX"/></g><path d="M205 0l-28-72H64L36 0H1l101-248h38L239 0h-34zm-38-99l-47-123c-12 45-31 82-46 123h93" id="bf"/><path d="M179-190L93 31C79 59 56 82 12 73V49c39 6 53-20 64-50L1-190h34L92-34l54-156h33" id="bg"/><g id="m"><use transform="matrix(0.05,0,0,0.05,0,0)" xlink:href="#bf"/><use transform="matrix(0.05,0,0,0.05,12,0)" xlink:href="#aS"/><use transform="matrix(0.05,0,0,0.05,17.95,0)" xlink:href="#aS"/><use transform="matrix(0.05,0,0,0.05,23.9,0)" xlink:href="#aO"/><use transform="matrix(0.05,0,0,0.05,33.9,0)" xlink:href="#bg"/></g><path d="M96-169c-40 0-48 33-48 73s9 75 48 75c24 0 41-14 43-38l32 2c-6 37-31 61-74 61-59 0-76-41-82-99-10-93 101-131 147-64 4 7 5 14 7 22l-32 3c-4-21-16-35-41-35" id="bh"/><g id="n"><use transform="matrix(0.05,0,0,0.05,0,0)" xlink:href="#bh"/><use transform="matrix(0.05,0,0,0.05,9,0)" xlink:href="#aS"/><use transform="matrix(0.05,0,0,0.05,14.949999999999998,0)" xlink:href="#aQ"/><use transform="matrix(0.05,0,0,0.05,24.95,0)" xlink:href="#aO"/><use transform="matrix(0.05,0,0,0.05,34.95,0)" xlink:href="#aR"/><use transform="matrix(0.05,0,0,0.05,39.95,0)" xlink:href="#aQ"/><use transform="matrix(0.05,0,0,0.05,49.95,0)" xlink:href="#ba"/><use transform="matrix(0.05,0,0,0.05,59.95,0)" xlink:href="#bf"/><use transform="matrix(0.05,0,0,0.05,71.95,0)" xlink:href="#aR"/></g><path d="M30-248c118-7 216 8 213 122C240-48 200 0 122 0H30v-248zM63-27c89 8 146-16 146-99s-60-101-146-95v194" id="bi"/><g id="o"><use transform="matrix(0.05,0,0,0.05,0,0)" xlink:href="#bi"/><use transform="matrix(0.05,0,0,0.05,12.950000000000001,0)" xlink:href="#aO"/><use transform="matrix(0.05,0,0,0.05,22.950000000000003,0)" xlink:href="#aR"/><use transform="matrix(0.05,0,0,0.05,27.950000000000003,0)" xlink:href="#aQ"/></g><path d="M240 0l2-218c-23 76-54 145-80 218h-23L58-218 59 0H30v-248h44l77 211c21-75 51-140 76-211h43V0h-30" id="bj"/><path d="M33 0v-248h34V0H33" id="bk"/><path d="M190 0L58-211 59 0H30v-248h39L202-35l-2-213h31V0h-41" id="bl"/><g id="p"><use transform="matrix(0.05,0,0,0.05,0,0)" xlink:href="#bf"/><use transform="matrix(0.05,0,0,0.05,12,0)" xlink:href="#bi"/><use transform="matrix(0.05,0,0,0.05,24.950000000000003,0)" xlink:href="#bj"/><use transform="matrix(0.05,0,0,0.05,39.900000000000006,0)" xlink:href="#bk"/><use transform="matrix(0.05,0,0,0.05,44.900000000000006,0)" xlink:href="#bl"/></g><g id="q"><use transform="matrix(0.05,0,0,0.05,0,0)" xlink:href="#aW"/><use transform="matrix(0.05,0,0,0.05,10,0)" xlink:href="#aQ"/><use transform="matrix(0.05,0,0,0.05,20,0)" xlink:href="#aS"/><use transform="matrix(0.05,0,0,0.05,25.950000000000003,0)" xlink:href="#aP"/><use transform="matrix(0.05,0,0,0.05,40.9,0)" xlink:href="#aT"/><use transform="matrix(0.05,0,0,0.05,44.85,0)" xlink:href="#aX"/><use transform="matrix(0.05,0,0,0.05,53.85,0)" xlink:href="#aX"/><use transform="matrix(0.05,0,0,0.05,62.85,0)" xlink:href="#aT"/><use transform="matrix(0.05,0,0,0.05,66.8,0)" xlink:href="#aZ"/><use transform="matrix(0.05,0,0,0.05,76.8,0)" xlink:href="#aN"/><use transform="matrix(0.05,0,0,0.05,86.8,0)" xlink:href="#aX"/></g><path d="M26 75v-336h71v23H56V52h41v23H26" id="bm"/><path d="M3 75V52h41v-290H3v-23h71V75H3" id="bn"/><g id="r"><use transform="matrix(0.05,0,0,0.05,0,0)" xlink:href="#bm"/><use transform="matrix(0.05,0,0,0.05,5,0)" xlink:href="#bn"/></g><path d="M127-220V0H93v-220H8v-28h204v28h-85" id="bo"/><path d="M140-251c81 0 123 46 123 126C263-46 219 4 140 4 59 4 17-45 17-125s42-126 123-126zm0 227c63 0 89-41 89-101s-29-99-89-99c-61 0-89 39-89 99S79-25 140-24" id="bp"/><g id="s"><use transform="matrix(0.05,0,0,0.05,0,0)" xlink:href="#bj"/><use transform="matrix(0.05,0,0,0.05,14.950000000000001,0)" xlink:href="#aK"/><use transform="matrix(0.05,0,0,0.05,26.950000000000003,0)" xlink:href="#bl"/><use transform="matrix(0.05,0,0,0.05,39.900000000000006,0)" xlink:href="#bo"/><use transform="matrix(0.05,0,0,0.05,50.50000000000001,0)" xlink:href="#bp"/><use transform="matrix(0.05,0,0,0.05,64.5,0)" xlink:href="#aL"/></g><g id="t"><use transform="matrix(0.05,0,0,0.05,0,0)" xlink:href="#aR"/><use transform="matrix(0.05,0,0,0.05,5,0)" xlink:href="#aO"/><use transform="matrix(0.05,0,0,0.05,15,0)" xlink:href="#bd"/><use transform="matrix(0.05,0,0,0.05,25,0)" xlink:href="#aU"/><use transform="matrix(0.05,0,0,0.05,35,0)" xlink:href="#bc"/><use transform="matrix(0.05,0,0,0.05,45,0)" xlink:href="#aR"/><use transform="matrix(0.05,0,0,0.05,50,0)" xlink:href="#bb"/><use transform="matrix(0.05,0,0,0.05,62.95,0)" xlink:href="#aZ"/><use transform="matrix(0.05,0,0,0.05,72.95,0)" xlink:href="#bd"/><use transform="matrix(0.05,0,0,0.05,82.95,0)" xlink:href="#aS"/><use transform="matrix(0.05,0,0,0.05,88.9,0)" xlink:href="#aX"/><use transform="matrix(0.05,0,0,0.05,97.9,0)" xlink:href="#aQ"/><use transform="matrix(0.05,0,0,0.05,107.9,0)" xlink:href="#aX"/></g><path d="M115-194c53 0 69 39 70 98 0 66-23 100-70 100C84 3 66-7 56-30L54 0H23l1-261h32v101c10-23 28-34 59-34zm-8 174c40 0 45-34 45-75 0-40-5-75-45-74-42 0-51 32-51 76 0 43 10 73 51 73" id="bq"/><path d="M24-231v-30h32v30H24zM-9 49c24 4 33-6 33-30v-209h32V24c2 40-23 58-65 49V49" id="br"/><path d="M87 75C49 33 22-17 22-94c0-76 28-126 65-167h31c-38 41-64 92-64 168S80 34 118 75H87" id="bs"/><path d="M33-261c38 41 65 92 65 168S71 34 33 75H2C39 34 66-17 66-93S39-220 2-261h31" id="bt"/><g id="u"><use transform="matrix(0.05,0,0,0.05,0,0)" xlink:href="#bm"/><use transform="matrix(0.05,0,0,0.05,5,0)" xlink:href="#bp"/><use transform="matrix(0.05,0,0,0.05,19,0)" xlink:href="#bq"/><use transform="matrix(0.05,0,0,0.05,29,0)" xlink:href="#br"/><use transform="matrix(0.05,0,0,0.05,32.95,0)" xlink:href="#aQ"/><use transform="matrix(0.05,0,0,0.05,42.95,0)" xlink:href="#bh"/><use transform="matrix(0.05,0,0,0.05,51.95,0)" xlink:href="#aR"/><use transform="matrix(0.05,0,0,0.05,56.95,0)" xlink:href="#bk"/><use transform="matrix(0.05,0,0,0.05,61.95,0)" xlink:href="#ba"/><use transform="matrix(0.05,0,0,0.05,71.95,0)" xlink:href="#bs"/><use transform="matrix(0.05,0,0,0.05,77.9,0)" xlink:href="#bb"/><use transform="matrix(0.05,0,0,0.05,90.85000000000001,0)" xlink:href="#aZ"/><use transform="matrix(0.05,0,0,0.05,100.85000000000001,0)" xlink:href="#bd"/><use transform="matrix(0.05,0,0,0.05,110.85000000000001,0)" xlink:href="#aS"/><use transform="matrix(0.05,0,0,0.05,116.80000000000001,0)" xlink:href="#aX"/><use transform="matrix(0.05,0,0,0.05,125.80000000000001,0)" xlink:href="#aQ"/><use transform="matrix(0.05,0,0,0.05,135.8,0)" xlink:href="#bt"/><use transform="matrix(0.05,0,0,0.05,141.75,0)" xlink:href="#bn"/></g><path d="M141 0L90-78 38 0H4l68-98-65-92h35l48 74 47-74h35l-64 92 68 98h-35" id="bu"/><g id="v"><use transform="matrix(0.05,0,0,0.05,0,0)" xlink:href="#aQ"/><use transform="matrix(0.05,0,0,0.05,10,0)" xlink:href="#bu"/><use transform="matrix(0.05,0,0,0.05,19,0)" xlink:href="#aW"/><use transform="matrix(0.05,0,0,0.05,29,0)" xlink:href="#aQ"/><use transform="matrix(0.05,0,0,0.05,39,0)" xlink:href="#aS"/><use transform="matrix(0.05,0,0,0.05,44.95,0)" xlink:href="#aR"/><use transform="matrix(0.05,0,0,0.05,49.95,0)" xlink:href="#aT"/><use transform="matrix(0.05,0,0,0.05,53.900000000000006,0)" xlink:href="#aX"/><use transform="matrix(0.05,0,0,0.05,62.900000000000006,0)" xlink:href="#aQ"/></g><g id="w"><use transform="matrix(0.05,0,0,0.05,0,0)" xlink:href="#aS"/><use transform="matrix(0.05,0,0,0.05,5.95,0)" xlink:href="#aO"/><use transform="matrix(0.05,0,0,0.05,15.949999999999998,0)" xlink:href="#aR"/><use transform="matrix(0.05,0,0,0.05,20.95,0)" xlink:href="#aT"/><use transform="matrix(0.05,0,0,0.05,24.9,0)" xlink:href="#aN"/><use transform="matrix(0.05,0,0,0.05,34.9,0)" xlink:href="#aU"/></g><g id="x"><use transform="matrix(0.05,0,0,0.05,0,0)" xlink:href="#bl"/><use transform="matrix(0.05,0,0,0.05,12.950000000000001,0)" xlink:href="#bd"/><use transform="matrix(0.05,0,0,0.05,22.950000000000003,0)" xlink:href="#aP"/><use transform="matrix(0.05,0,0,0.05,37.900000000000006,0)" xlink:href="#bq"/><use transform="matrix(0.05,0,0,0.05,47.900000000000006,0)" xlink:href="#aQ"/><use transform="matrix(0.05,0,0,0.05,57.900000000000006,0)" xlink:href="#aS"/></g><g id="y"><use transform="matrix(0.05,0,0,0.05,0,0)" xlink:href="#aJ"/><use transform="matrix(0.05,0,0,0.05,12,0)" xlink:href="#bo"/><use transform="matrix(0.05,0,0,0.05,22.950000000000003,0)" xlink:href="#aI"/><use transform="matrix(0.05,0,0,0.05,35.900000000000006,0)" xlink:href="#bi"/><use transform="matrix(0.05,0,0,0.05,48.85000000000001,0)" xlink:href="#aK"/><use transform="matrix(0.05,0,0,0.05,60.85,0)" xlink:href="#bl"/><use transform="matrix(0.05,0,0,0.05,73.80000000000001,0)" xlink:href="#bo"/></g><path d="M63-220v92h138v28H63V0H30v-248h175v28H63" id="bv"/><path d="M108 0H70L1-190h34L89-25l56-165h34" id="bw"/><g id="z"><use transform="matrix(0.05,0,0,0.05,0,0)" xlink:href="#aT"/><use transform="matrix(0.05,0,0,0.05,3.95,0)" xlink:href="#aN"/><use transform="matrix(0.05,0,0,0.05,13.949999999999998,0)" xlink:href="#bv"/><use transform="matrix(0.05,0,0,0.05,24.9,0)" xlink:href="#aO"/><use transform="matrix(0.05,0,0,0.05,34.9,0)" xlink:href="#bw"/><use transform="matrix(0.05,0,0,0.05,43.9,0)" xlink:href="#aZ"/><use transform="matrix(0.05,0,0,0.05,53.900000000000006,0)" xlink:href="#bd"/><use transform="matrix(0.05,0,0,0.05,63.900000000000006,0)" xlink:href="#aS"/><use transform="matrix(0.05,0,0,0.05,69.85,0)" xlink:href="#aT"/><use transform="matrix(0.05,0,0,0.05,73.8,0)" xlink:href="#aR"/><use transform="matrix(0.05,0,0,0.05,78.8,0)" xlink:href="#aQ"/><use transform="matrix(0.05,0,0,0.05,88.8,0)" xlink:href="#bb"/><use transform="matrix(0.05,0,0,0.05,101.75,0)" xlink:href="#aZ"/><use transform="matrix(0.05,0,0,0.05,111.75,0)" xlink:href="#bd"/><use transform="matrix(0.05,0,0,0.05,121.75,0)" xlink:href="#aS"/><use transform="matrix(0.05,0,0,0.05,127.7,0)" xlink:href="#aX"/><use transform="matrix(0.05,0,0,0.05,136.7,0)" xlink:href="#aQ"/><use transform="matrix(0.05,0,0,0.05,146.7,0)" xlink:href="#aX"/></g><g id="A"><use transform="matrix(0.05,0,0,0.05,0,0)" xlink:href="#aT"/><use transform="matrix(0.05,0,0,0.05,3.95,0)" xlink:href="#aN"/><use transform="matrix(0.05,0,0,0.05,13.949999999999998,0)" xlink:href="#bb"/><use transform="matrix(0.05,0,0,0.05,26.899999999999995,0)" xlink:href="#aO"/><use transform="matrix(0.05,0,0,0.05,36.9,0)" xlink:href="#aS"/><use transform="matrix(0.05,0,0,0.05,42.85,0)" xlink:href="#aR"/><use transform="matrix(0.05,0,0,0.05,47.85,0)" xlink:href="#bb"/><use transform="matrix(0.05,0,0,0.05,60.800000000000004,0)" xlink:href="#aZ"/><use transform="matrix(0.05,0,0,0.05,70.80000000000001,0)" xlink:href="#bd"/><use transform="matrix(0.05,0,0,0.05,80.80000000000001,0)" xlink:href="#aS"/><use transform="matrix(0.05,0,0,0.05,86.75000000000001,0)" xlink:href="#aX"/><use transform="matrix(0.05,0,0,0.05,95.75000000000001,0)" xlink:href="#aQ"/><use transform="matrix(0.05,0,0,0.05,105.75,0)" xlink:href="#aX"/></g><g id="B"><use transform="matrix(0.05,0,0,0.05,0,0)" xlink:href="#aQ"/><use transform="matrix(0.05,0,0,0.05,10,0)" xlink:href="#aN"/><use transform="matrix(0.05,0,0,0.05,20,0)" xlink:href="#aS"/><use transform="matrix(0.05,0,0,0.05,25.950000000000003,0)" xlink:href="#aZ"/><use transform="matrix(0.05,0,0,0.05,35.95,0)" xlink:href="#aV"/><use transform="matrix(0.05,0,0,0.05,39.900000000000006,0)" xlink:href="#aV"/><use transform="matrix(0.05,0,0,0.05,43.85000000000001,0)" xlink:href="#aQ"/><use transform="matrix(0.05,0,0,0.05,53.85,0)" xlink:href="#ba"/><use transform="matrix(0.05,0,0,0.05,63.85,0)" xlink:href="#bb"/><use transform="matrix(0.05,0,0,0.05,76.80000000000001,0)" xlink:href="#aZ"/><use transform="matrix(0.05,0,0,0.05,86.80000000000001,0)" xlink:href="#bd"/><use transform="matrix(0.05,0,0,0.05,96.80000000000001,0)" xlink:href="#aS"/><use transform="matrix(0.05,0,0,0.05,102.75,0)" xlink:href="#aX"/><use transform="matrix(0.05,0,0,0.05,111.75,0)" xlink:href="#aQ"/><use transform="matrix(0.05,0,0,0.05,121.75,0)" xlink:href="#aX"/></g><path d="M158-156l-14 65h45v19h-49L124 0h-19l15-72H56L41 0H22l15-72H2v-19h39l14-65H11v-19h48l15-71h20l-16 71h64l16-71h19l-16 71h37v19h-40zm-83 0L61-91h63l14-65H75" id="bx"/><g id="C"><use transform="matrix(0.05,0,0,0.05,0,0)" xlink:href="#bm"/><use transform="matrix(0.05,0,0,0.05,5,0)" xlink:href="#bx"/><use transform="matrix(0.05,0,0,0.05,15,0)" xlink:href="#bx"/><use transform="matrix(0.05,0,0,0.05,25,0)" xlink:href="#bx"/><use transform="matrix(0.05,0,0,0.05,35,0)" xlink:href="#aK"/><use transform="matrix(0.05,0,0,0.05,47,0)" xlink:href="#aN"/><use transform="matrix(0.05,0,0,0.05,57,0)" xlink:href="#aS"/><use transform="matrix(0.05,0,0,0.05,62.95,0)" xlink:href="#aZ"/><use transform="matrix(0.05,0,0,0.05,72.95,0)" xlink:href="#aV"/><use transform="matrix(0.05,0,0,0.05,76.9,0)" xlink:href="#aV"/><use transform="matrix(0.05,0,0,0.05,80.85000000000001,0)" xlink:href="#aQ"/><use transform="matrix(0.05,0,0,0.05,90.85000000000001,0)" xlink:href="#ba"/><use transform="matrix(0.05,0,0,0.05,100.85000000000001,0)" xlink:href="#bb"/><use transform="matrix(0.05,0,0,0.05,113.80000000000001,0)" xlink:href="#aZ"/><use transform="matrix(0.05,0,0,0.05,123.80000000000001,0)" xlink:href="#bd"/><use transform="matrix(0.05,0,0,0.05,133.8,0)" xlink:href="#aS"/><use transform="matrix(0.05,0,0,0.05,139.75,0)" xlink:href="#aX"/><use transform="matrix(0.05,0,0,0.05,148.75,0)" xlink:href="#aQ"/><use transform="matrix(0.05,0,0,0.05,158.75,0)" xlink:href="#aX"/><use transform="matrix(0.05,0,0,0.05,167.75,0)" xlink:href="#bn"/></g><g id="D"><use transform="matrix(0.05,0,0,0.05,0,0)" xlink:href="#bb"/><use transform="matrix(0.05,0,0,0.05,12.950000000000001,0)" xlink:href="#bp"/><use transform="matrix(0.05,0,0,0.05,26.950000000000003,0)" xlink:href="#aI"/><use transform="matrix(0.05,0,0,0.05,39.900000000000006,0)" xlink:href="#aL"/><use transform="matrix(0.05,0,0,0.05,52.85,0)" xlink:href="#aJ"/><use transform="matrix(0.05,0,0,0.05,64.85000000000001,0)" xlink:href="#aK"/></g><g id="E"><use transform="matrix(0.05,0,0,0.05,0,0)" xlink:href="#aP"/><use transform="matrix(0.05,0,0,0.05,14.950000000000001,0)" xlink:href="#aQ"/><use transform="matrix(0.05,0,0,0.05,24.950000000000003,0)" xlink:href="#aN"/><use transform="matrix(0.05,0,0,0.05,34.95,0)" xlink:href="#aR"/><use transform="matrix(0.05,0,0,0.05,39.95,0)" xlink:href="#aZ"/><use transform="matrix(0.05,0,0,0.05,49.95,0)" xlink:href="#aS"/></g><g id="F"><use transform="matrix(0.05,0,0,0.05,0,0)" xlink:href="#bp"/><use transform="matrix(0.05,0,0,0.05,14,0)" xlink:href="#bq"/><use transform="matrix(0.05,0,0,0.05,24,0)" xlink:href="#br"/><use transform="matrix(0.05,0,0,0.05,27.950000000000003,0)" xlink:href="#aQ"/><use transform="matrix(0.05,0,0,0.05,37.95,0)" xlink:href="#bh"/><use transform="matrix(0.05,0,0,0.05,46.95,0)" xlink:href="#aR"/><use transform="matrix(0.05,0,0,0.05,51.95,0)" xlink:href="#bk"/><use transform="matrix(0.05,0,0,0.05,56.95,0)" xlink:href="#ba"/></g><g id="G"><use transform="matrix(0.05,0,0,0.05,0,0)" xlink:href="#aR"/><use transform="matrix(0.05,0,0,0.05,5,0)" xlink:href="#aT"/><use transform="matrix(0.05,0,0,0.05,8.95,0)" xlink:href="#aR"/><use transform="matrix(0.05,0,0,0.05,13.949999999999998,0)" xlink:href="#aV"/><use transform="matrix(0.05,0,0,0.05,17.9,0)" xlink:href="#aQ"/></g><g id="H"><use transform="matrix(0.05,0,0,0.05,0,0)" xlink:href="#ba"/><use transform="matrix(0.05,0,0,0.05,10,0)" xlink:href="#aQ"/><use transform="matrix(0.05,0,0,0.05,20,0)" xlink:href="#aX"/><use transform="matrix(0.05,0,0,0.05,29,0)" xlink:href="#bh"/><use transform="matrix(0.05,0,0,0.05,38,0)" xlink:href="#aS"/><use transform="matrix(0.05,0,0,0.05,43.95,0)" xlink:href="#aT"/><use transform="matrix(0.05,0,0,0.05,47.900000000000006,0)" xlink:href="#aW"/><use transform="matrix(0.05,0,0,0.05,57.900000000000006,0)" xlink:href="#aR"/><use transform="matrix(0.05,0,0,0.05,62.900000000000006,0)" xlink:href="#aT"/><use transform="matrix(0.05,0,0,0.05,66.85000000000001,0)" xlink:href="#aZ"/><use transform="matrix(0.05,0,0,0.05,76.85000000000001,0)" xlink:href="#aN"/></g><g id="I"><use transform="matrix(0.05,0,0,0.05,0,0)" xlink:href="#aR"/><use transform="matrix(0.05,0,0,0.05,5,0)" xlink:href="#aO"/><use transform="matrix(0.05,0,0,0.05,15,0)" xlink:href="#aU"/><use transform="matrix(0.05,0,0,0.05,25,0)" xlink:href="#aX"/></g><g id="J"><use transform="matrix(0.05,0,0,0.05,0,0)" xlink:href="#aW"/><use transform="matrix(0.05,0,0,0.05,10,0)" xlink:href="#aS"/><use transform="matrix(0.05,0,0,0.05,15.949999999999998,0)" xlink:href="#aT"/><use transform="matrix(0.05,0,0,0.05,19.9,0)" xlink:href="#bh"/><use transform="matrix(0.05,0,0,0.05,28.899999999999995,0)" xlink:href="#aQ"/></g><g id="K"><use transform="matrix(0.05,0,0,0.05,0,0)" xlink:href="#ba"/><use transform="matrix(0.05,0,0,0.05,10,0)" xlink:href="#bd"/><use transform="matrix(0.05,0,0,0.05,20,0)" xlink:href="#aS"/><use transform="matrix(0.05,0,0,0.05,25.950000000000003,0)" xlink:href="#aO"/><use transform="matrix(0.05,0,0,0.05,35.95,0)" xlink:href="#aR"/><use transform="matrix(0.05,0,0,0.05,40.95,0)" xlink:href="#aT"/><use transform="matrix(0.05,0,0,0.05,44.900000000000006,0)" xlink:href="#aZ"/><use transform="matrix(0.05,0,0,0.05,54.900000000000006,0)" xlink:href="#aN"/></g><g id="L"><use transform="matrix(0.05,0,0,0.05,0,0)" xlink:href="#bd"/><use transform="matrix(0.05,0,0,0.05,10,0)" xlink:href="#aW"/><use transform="matrix(0.05,0,0,0.05,20,0)" xlink:href="#ba"/><use transform="matrix(0.05,0,0,0.05,30,0)" xlink:href="#aO"/><use transform="matrix(0.05,0,0,0.05,40,0)" xlink:href="#aR"/><use transform="matrix(0.05,0,0,0.05,45,0)" xlink:href="#aQ"/><use transform="matrix(0.05,0,0,0.05,55,0)" xlink:href="#ba"/><use transform="matrix(0.05,0,0,0.05,65,0)" xlink:href="#bf"/><use transform="matrix(0.05,0,0,0.05,77,0)" xlink:href="#aR"/></g><g id="M"><use transform="matrix(0.05,0,0,0.05,0,0)" xlink:href="#bj"/><use transform="matrix(0.05,0,0,0.05,14.950000000000001,0)" xlink:href="#aZ"/><use transform="matrix(0.05,0,0,0.05,24.950000000000003,0)" xlink:href="#ba"/><use transform="matrix(0.05,0,0,0.05,34.95,0)" xlink:href="#bd"/><use transform="matrix(0.05,0,0,0.05,44.95,0)" xlink:href="#aV"/><use transform="matrix(0.05,0,0,0.05,48.900000000000006,0)" xlink:href="#aQ"/><use transform="matrix(0.05,0,0,0.05,58.900000000000006,0)" xlink:href="#aX"/></g><g id="N"><use transform="matrix(0.05,0,0,0.05,0,0)" xlink:href="#bm"/><use transform="matrix(0.05,0,0,0.05,5,0)" xlink:href="#bx"/><use transform="matrix(0.05,0,0,0.05,15,0)" xlink:href="#bx"/><use transform="matrix(0.05,0,0,0.05,25,0)" xlink:href="#bx"/><use transform="matrix(0.05,0,0,0.05,35,0)" xlink:href="#bj"/><use transform="matrix(0.05,0,0,0.05,49.95,0)" xlink:href="#aZ"/><use transform="matrix(0.05,0,0,0.05,59.95,0)" xlink:href="#ba"/><use transform="matrix(0.05,0,0,0.05,69.95,0)" xlink:href="#bd"/><use transform="matrix(0.05,0,0,0.05,79.95,0)" xlink:href="#aV"/><use transform="matrix(0.05,0,0,0.05,83.9,0)" xlink:href="#aQ"/><use transform="matrix(0.05,0,0,0.05,93.9,0)" xlink:href="#bn"/></g><path d="M-5 72V49h209v23H-5" id="by"/><g id="O"><use transform="matrix(0.05,0,0,0.05,0,0)" xlink:href="#by"/><use transform="matrix(0.05,0,0,0.05,10,0)" xlink:href="#by"/><use transform="matrix(0.05,0,0,0.05,20,0)" xlink:href="#bo"/><use transform="matrix(0.05,0,0,0.05,28.950000000000003,0)" xlink:href="#aZ"/><use transform="matrix(0.05,0,0,0.05,38.95,0)" xlink:href="#aR"/><use transform="matrix(0.05,0,0,0.05,43.95,0)" xlink:href="#aO"/><use transform="matrix(0.05,0,0,0.05,53.95,0)" xlink:href="#aV"/><use transform="matrix(0.05,0,0,0.05,57.900000000000006,0)" xlink:href="#aJ"/><use transform="matrix(0.05,0,0,0.05,69.9,0)" xlink:href="#aR"/><use transform="matrix(0.05,0,0,0.05,74.9,0)" xlink:href="#bd"/><use transform="matrix(0.05,0,0,0.05,84.9,0)" xlink:href="#ba"/><use transform="matrix(0.05,0,0,0.05,94.9,0)" xlink:href="#aQ"/><use transform="matrix(0.05,0,0,0.05,104.9,0)" xlink:href="#aN"/><use transform="matrix(0.05,0,0,0.05,114.9,0)" xlink:href="#aR"/><use transform="matrix(0.05,0,0,0.05,119.9,0)" xlink:href="#aX"/></g><path d="M30 0v-248h33v221h125V0H30" id="bz"/><g id="P"><use transform="matrix(0.05,0,0,0.05,0,0)" xlink:href="#bj"/><use transform="matrix(0.05,0,0,0.05,14.950000000000001,0)" xlink:href="#bp"/><use transform="matrix(0.05,0,0,0.05,28.950000000000003,0)" xlink:href="#bi"/><use transform="matrix(0.05,0,0,0.05,41.900000000000006,0)" xlink:href="#aI"/><use transform="matrix(0.05,0,0,0.05,54.85,0)" xlink:href="#bz"/><use transform="matrix(0.05,0,0,0.05,64.85000000000001,0)" xlink:href="#aK"/></g><g id="Q"><use transform="matrix(0.05,0,0,0.05,0,0)" xlink:href="#aV"/><use transform="matrix(0.05,0,0,0.05,3.95,0)" xlink:href="#aQ"/><use transform="matrix(0.05,0,0,0.05,13.949999999999998,0)" xlink:href="#aX"/><use transform="matrix(0.05,0,0,0.05,22.95,0)" xlink:href="#aX"/><use transform="matrix(0.05,0,0,0.05,31.950000000000003,0)" xlink:href="#aZ"/><use transform="matrix(0.05,0,0,0.05,41.95,0)" xlink:href="#aN"/><use transform="matrix(0.05,0,0,0.05,51.95,0)" xlink:href="#aX"/></g><g id="R"><use transform="matrix(0.05,0,0,0.05,0,0)" xlink:href="#bm"/><use transform="matrix(0.05,0,0,0.05,5,0)" xlink:href="#bx"/><use transform="matrix(0.05,0,0,0.05,15,0)" xlink:href="#bx"/><use transform="matrix(0.05,0,0,0.05,25,0)" xlink:href="#bx"/><use transform="matrix(0.05,0,0,0.05,35,0)" xlink:href="#bz"/><use transform="matrix(0.05,0,0,0.05,45,0)" xlink:href="#aQ"/><use transform="matrix(0.05,0,0,0.05,55,0)" xlink:href="#aX"/><use transform="matrix(0.05,0,0,0.05,64,0)" xlink:href="#aX"/><use transform="matrix(0.05,0,0,0.05,73,0)" xlink:href="#aZ"/><use transform="matrix(0.05,0,0,0.05,83,0)" xlink:href="#aN"/><use transform="matrix(0.05,0,0,0.05,93,0)" xlink:href="#bn"/></g><g id="S"><use transform="matrix(0.05,0,0,0.05,0,0)" xlink:href="#bz"/><use transform="matrix(0.05,0,0,0.05,10,0)" xlink:href="#aK"/><use transform="matrix(0.05,0,0,0.05,22,0)" xlink:href="#aJ"/><use transform="matrix(0.05,0,0,0.05,34,0)" xlink:href="#aJ"/><use transform="matrix(0.05,0,0,0.05,46,0)" xlink:href="#bp"/><use transform="matrix(0.05,0,0,0.05,60,0)" xlink:href="#bl"/></g><g id="T"><use transform="matrix(0.05,0,0,0.05,0,0)" xlink:href="#bh"/><use transform="matrix(0.05,0,0,0.05,9,0)" xlink:href="#aZ"/><use transform="matrix(0.05,0,0,0.05,19,0)" xlink:href="#aN"/><use transform="matrix(0.05,0,0,0.05,29,0)" xlink:href="#aR"/><use transform="matrix(0.05,0,0,0.05,34,0)" xlink:href="#aQ"/><use transform="matrix(0.05,0,0,0.05,44,0)" xlink:href="#aN"/><use transform="matrix(0.05,0,0,0.05,54,0)" xlink:href="#aR"/></g><g id="U"><use transform="matrix(0.05,0,0,0.05,0,0)" xlink:href="#bh"/><use transform="matrix(0.05,0,0,0.05,9,0)" xlink:href="#aZ"/><use transform="matrix(0.05,0,0,0.05,19,0)" xlink:href="#aP"/><use transform="matrix(0.05,0,0,0.05,33.95,0)" xlink:href="#aP"/><use transform="matrix(0.05,0,0,0.05,48.900000000000006,0)" xlink:href="#aQ"/><use transform="matrix(0.05,0,0,0.05,58.900000000000006,0)" xlink:href="#aN"/><use transform="matrix(0.05,0,0,0.05,68.9,0)" xlink:href="#aR"/><use transform="matrix(0.05,0,0,0.05,73.9,0)" xlink:href="#aX"/></g><g id="V"><use transform="matrix(0.05,0,0,0.05,0,0)" xlink:href="#bb"/><use transform="matrix(0.05,0,0,0.05,12.950000000000001,0)" xlink:href="#bp"/><use transform="matrix(0.05,0,0,0.05,26.950000000000003,0)" xlink:href="#bj"/><use transform="matrix(0.05,0,0,0.05,41.900000000000006,0)" xlink:href="#bj"/><use transform="matrix(0.05,0,0,0.05,56.85,0)" xlink:href="#aK"/><use transform="matrix(0.05,0,0,0.05,68.85000000000001,0)" xlink:href="#bl"/><use transform="matrix(0.05,0,0,0.05,81.80000000000001,0)" xlink:href="#bo"/></g><g id="W"><use transform="matrix(0.05,0,0,0.05,0,0)" xlink:href="#bd"/><use transform="matrix(0.05,0,0,0.05,10,0)" xlink:href="#aX"/><use transform="matrix(0.05,0,0,0.05,19,0)" xlink:href="#aQ"/><use transform="matrix(0.05,0,0,0.05,29,0)" xlink:href="#aS"/></g><path d="M137 0h-34L2-248h35l83 218 83-218h36" id="bA"/><path d="M266 0h-40l-56-210L115 0H75L2-248h35L96-30l15-64 43-154h32l59 218 59-218h35" id="bB"/><g id="X"><use transform="matrix(0.05,0,0,0.05,0,0)" xlink:href="#aL"/><use transform="matrix(0.05,0,0,0.05,12.950000000000001,0)" xlink:href="#aK"/><use transform="matrix(0.05,0,0,0.05,24.950000000000003,0)" xlink:href="#bA"/><use transform="matrix(0.05,0,0,0.05,36.95,0)" xlink:href="#bk"/><use transform="matrix(0.05,0,0,0.05,41.95,0)" xlink:href="#aK"/><use transform="matrix(0.05,0,0,0.05,53.95,0)" xlink:href="#bB"/></g><g id="Y"><use transform="matrix(0.05,0,0,0.05,0,0)" xlink:href="#aX"/><use transform="matrix(0.05,0,0,0.05,9,0)" xlink:href="#aR"/><use transform="matrix(0.05,0,0,0.05,14,0)" xlink:href="#bd"/><use transform="matrix(0.05,0,0,0.05,24,0)" xlink:href="#ba"/><use transform="matrix(0.05,0,0,0.05,34,0)" xlink:href="#aQ"/><use transform="matrix(0.05,0,0,0.05,44,0)" xlink:href="#aN"/><use transform="matrix(0.05,0,0,0.05,54,0)" xlink:href="#aR"/></g><g id="Z"><use transform="matrix(0.05,0,0,0.05,0,0)" xlink:href="#bh"/><use transform="matrix(0.05,0,0,0.05,9,0)" xlink:href="#aZ"/><use transform="matrix(0.05,0,0,0.05,19,0)" xlink:href="#bd"/><use transform="matrix(0.05,0,0,0.05,29,0)" xlink:href="#aS"/><use transform="matrix(0.05,0,0,0.05,34.95,0)" xlink:href="#aX"/><use transform="matrix(0.05,0,0,0.05,43.95,0)" xlink:href="#aQ"/></g><path d="M197 0v-115H63V0H30v-248h33v105h134v-105h34V0h-34" id="bC"/><g id="aa"><use transform="matrix(0.05,0,0,0.05,0,0)" xlink:href="#bb"/><use transform="matrix(0.05,0,0,0.05,12.950000000000001,0)" xlink:href="#bC"/><use transform="matrix(0.05,0,0,0.05,25.900000000000002,0)" xlink:href="#bf"/><use transform="matrix(0.05,0,0,0.05,36.55,0)" xlink:href="#bo"/><use transform="matrix(0.05,0,0,0.05,47.5,0)" xlink:href="#aL"/><use transform="matrix(0.05,0,0,0.05,60.45,0)" xlink:href="#bp"/><use transform="matrix(0.05,0,0,0.05,74.45,0)" xlink:href="#bp"/><use transform="matrix(0.05,0,0,0.05,88.45,0)" xlink:href="#bj"/></g><g id="ab"><use transform="matrix(0.05,0,0,0.05,0,0)" xlink:href="#aX"/><use transform="matrix(0.05,0,0,0.05,9,0)" xlink:href="#aR"/><use transform="matrix(0.05,0,0,0.05,14,0)" xlink:href="#aO"/><use transform="matrix(0.05,0,0,0.05,24,0)" xlink:href="#aR"/><use transform="matrix(0.05,0,0,0.05,29,0)" xlink:href="#bd"/><use transform="matrix(0.05,0,0,0.05,39,0)" xlink:href="#aX"/></g><g id="ac"><use transform="matrix(0.05,0,0,0.05,0,0)" xlink:href="#aP"/><use transform="matrix(0.05,0,0,0.05,14.950000000000001,0)" xlink:href="#aQ"/><use transform="matrix(0.05,0,0,0.05,24.950000000000003,0)" xlink:href="#aX"/><use transform="matrix(0.05,0,0,0.05,33.95,0)" xlink:href="#aX"/><use transform="matrix(0.05,0,0,0.05,42.95,0)" xlink:href="#aO"/><use transform="matrix(0.05,0,0,0.05,52.95,0)" xlink:href="#aU"/><use transform="matrix(0.05,0,0,0.05,62.95,0)" xlink:href="#aQ"/><use transform="matrix(0.05,0,0,0.05,72.95,0)" xlink:href="#aX"/></g><path d="M160-131c35 5 61 23 61 61C221 17 115-2 30 0v-248c76 3 177-17 177 60 0 33-19 50-47 57zm-97-11c50-1 110 9 110-42 0-47-63-36-110-37v79zm0 115c55-2 124 14 124-45 0-56-70-42-124-44v89" id="bD"/><path d="M194 0L95-120 63-95V0H30v-248h33v124l119-124h40L117-140 236 0h-42" id="bE"/><path d="M143 4C61 4 22-44 18-125c-5-107 100-154 193-111 17 8 29 25 37 43l-32 9c-13-25-37-40-76-40-61 0-88 39-88 99 0 61 29 100 91 101 35 0 62-11 79-27v-45h-74v-28h105v86C228-13 192 4 143 4" id="bF"/><g id="ad"><use transform="matrix(0.05,0,0,0.05,0,0)" xlink:href="#bD"/><use transform="matrix(0.05,0,0,0.05,12,0)" xlink:href="#bp"/><use transform="matrix(0.05,0,0,0.05,26,0)" xlink:href="#bp"/><use transform="matrix(0.05,0,0,0.05,40,0)" xlink:href="#bE"/><use transform="matrix(0.05,0,0,0.05,52,0)" xlink:href="#bk"/><use transform="matrix(0.05,0,0,0.05,57,0)" xlink:href="#bl"/><use transform="matrix(0.05,0,0,0.05,69.95,0)" xlink:href="#bF"/></g><g id="ae"><use transform="matrix(0.05,0,0,0.05,0,0)" xlink:href="#aX"/><use transform="matrix(0.05,0,0,0.05,9,0)" xlink:href="#aR"/><use transform="matrix(0.05,0,0,0.05,14,0)" xlink:href="#bd"/><use transform="matrix(0.05,0,0,0.05,24,0)" xlink:href="#ba"/><use transform="matrix(0.05,0,0,0.05,34,0)" xlink:href="#aQ"/><use transform="matrix(0.05,0,0,0.05,44,0)" xlink:href="#aN"/><use transform="matrix(0.05,0,0,0.05,54,0)" xlink:href="#aR"/><use transform="matrix(0.05,0,0,0.05,59,0)" xlink:href="#bk"/><use transform="matrix(0.05,0,0,0.05,64,0)" xlink:href="#ba"/></g><g id="af"><use transform="matrix(0.05,0,0,0.05,0,0)" xlink:href="#bh"/><use transform="matrix(0.05,0,0,0.05,9,0)" xlink:href="#aZ"/><use transform="matrix(0.05,0,0,0.05,19,0)" xlink:href="#bd"/><use transform="matrix(0.05,0,0,0.05,29,0)" xlink:href="#aS"/><use transform="matrix(0.05,0,0,0.05,34.95,0)" xlink:href="#aX"/><use transform="matrix(0.05,0,0,0.05,43.95,0)" xlink:href="#aQ"/><use transform="matrix(0.05,0,0,0.05,53.95,0)" xlink:href="#bk"/><use transform="matrix(0.05,0,0,0.05,58.95,0)" xlink:href="#ba"/></g><g id="ag"><use transform="matrix(0.05,0,0,0.05,0,0)" xlink:href="#ba"/><use transform="matrix(0.05,0,0,0.05,10,0)" xlink:href="#aT"/><use transform="matrix(0.05,0,0,0.05,13.949999999999998,0)" xlink:href="#aX"/><use transform="matrix(0.05,0,0,0.05,22.95,0)" xlink:href="#bh"/><use transform="matrix(0.05,0,0,0.05,31.950000000000003,0)" xlink:href="#aZ"/><use transform="matrix(0.05,0,0,0.05,41.95,0)" xlink:href="#bd"/><use transform="matrix(0.05,0,0,0.05,51.95,0)" xlink:href="#aN"/><use transform="matrix(0.05,0,0,0.05,61.95,0)" xlink:href="#aR"/></g><g id="ah"><use transform="matrix(0.05,0,0,0.05,0,0)" xlink:href="#bl"/><use transform="matrix(0.05,0,0,0.05,12.950000000000001,0)" xlink:href="#bp"/><use transform="matrix(0.05,0,0,0.05,26.950000000000003,0)" xlink:href="#bo"/><use transform="matrix(0.05,0,0,0.05,37.900000000000006,0)" xlink:href="#bk"/><use transform="matrix(0.05,0,0,0.05,42.900000000000006,0)" xlink:href="#bv"/><use transform="matrix(0.05,0,0,0.05,53.85,0)" xlink:href="#bk"/><use transform="matrix(0.05,0,0,0.05,58.85,0)" xlink:href="#bb"/><use transform="matrix(0.05,0,0,0.05,71.80000000000001,0)" xlink:href="#bf"/><use transform="matrix(0.05,0,0,0.05,82.45000000000002,0)" xlink:href="#bo"/><use transform="matrix(0.05,0,0,0.05,93.40000000000002,0)" xlink:href="#bk"/><use transform="matrix(0.05,0,0,0.05,98.40000000000002,0)" xlink:href="#bp"/><use transform="matrix(0.05,0,0,0.05,112.40000000000003,0)" xlink:href="#bl"/></g><g id="ai"><use transform="matrix(0.05,0,0,0.05,0,0)" xlink:href="#aX"/><use transform="matrix(0.05,0,0,0.05,9,0)" xlink:href="#aQ"/><use transform="matrix(0.05,0,0,0.05,19,0)" xlink:href="#aN"/><use transform="matrix(0.05,0,0,0.05,29,0)" xlink:href="#ba"/><use transform="matrix(0.05,0,0,0.05,39,0)" xlink:href="#aQ"/><use transform="matrix(0.05,0,0,0.05,49,0)" xlink:href="#aS"/></g><g id="aj"><use transform="matrix(0.05,0,0,0.05,0,0)" xlink:href="#bp"/><use transform="matrix(0.05,0,0,0.05,14,0)" xlink:href="#bq"/><use transform="matrix(0.05,0,0,0.05,24,0)" xlink:href="#br"/><use transform="matrix(0.05,0,0,0.05,27.950000000000003,0)" xlink:href="#aQ"/><use transform="matrix(0.05,0,0,0.05,37.95,0)" xlink:href="#bh"/><use transform="matrix(0.05,0,0,0.05,46.95,0)" xlink:href="#aR"/><use transform="matrix(0.05,0,0,0.05,51.95,0)" xlink:href="#bk"/><use transform="matrix(0.05,0,0,0.05,56.95,0)" xlink:href="#ba"/><use transform="matrix(0.05,0,0,0.05,66.95,0)" xlink:href="#bs"/><use transform="matrix(0.05,0,0,0.05,72.9,0)" xlink:href="#bj"/><use transform="matrix(0.05,0,0,0.05,87.85000000000001,0)" xlink:href="#aQ"/><use transform="matrix(0.05,0,0,0.05,97.85000000000001,0)" xlink:href="#aN"/><use transform="matrix(0.05,0,0,0.05,107.85000000000001,0)" xlink:href="#aR"/><use transform="matrix(0.05,0,0,0.05,112.85000000000001,0)" xlink:href="#aZ"/><use transform="matrix(0.05,0,0,0.05,122.85000000000001,0)" xlink:href="#aS"/><use transform="matrix(0.05,0,0,0.05,128.8,0)" xlink:href="#bt"/></g><g id="ak"><use transform="matrix(0.05,0,0,0.05,0,0)" xlink:href="#aS"/><use transform="matrix(0.05,0,0,0.05,5.95,0)" xlink:href="#aQ"/><use transform="matrix(0.05,0,0,0.05,15.949999999999998,0)" xlink:href="#bh"/><use transform="matrix(0.05,0,0,0.05,24.95,0)" xlink:href="#aT"/><use transform="matrix(0.05,0,0,0.05,28.899999999999995,0)" xlink:href="#aQ"/><use transform="matrix(0.05,0,0,0.05,38.9,0)" xlink:href="#bw"/><use transform="matrix(0.05,0,0,0.05,47.9,0)" xlink:href="#aQ"/><use transform="matrix(0.05,0,0,0.05,57.900000000000006,0)" xlink:href="#aS"/><use transform="matrix(0.05,0,0,0.05,63.85,0)" xlink:href="#aX"/></g><g id="al"><use transform="matrix(0.05,0,0,0.05,0,0)" xlink:href="#bm"/><use transform="matrix(0.05,0,0,0.05,5,0)" xlink:href="#bp"/><use transform="matrix(0.05,0,0,0.05,19,0)" xlink:href="#bq"/><use transform="matrix(0.05,0,0,0.05,29,0)" xlink:href="#br"/><use transform="matrix(0.05,0,0,0.05,32.95,0)" xlink:href="#aQ"/><use transform="matrix(0.05,0,0,0.05,42.95,0)" xlink:href="#bh"/><use transform="matrix(0.05,0,0,0.05,51.95,0)" xlink:href="#aR"/><use transform="matrix(0.05,0,0,0.05,56.95,0)" xlink:href="#bk"/><use transform="matrix(0.05,0,0,0.05,61.95,0)" xlink:href="#ba"/><use transform="matrix(0.05,0,0,0.05,71.95,0)" xlink:href="#bs"/><use transform="matrix(0.05,0,0,0.05,77.9,0)" xlink:href="#aJ"/><use transform="matrix(0.05,0,0,0.05,89.9,0)" xlink:href="#aR"/><use transform="matrix(0.05,0,0,0.05,94.9,0)" xlink:href="#bd"/><use transform="matrix(0.05,0,0,0.05,104.9,0)" xlink:href="#ba"/><use transform="matrix(0.05,0,0,0.05,114.9,0)" xlink:href="#aQ"/><use transform="matrix(0.05,0,0,0.05,124.9,0)" xlink:href="#aN"/><use transform="matrix(0.05,0,0,0.05,134.9,0)" xlink:href="#aR"/><use transform="matrix(0.05,0,0,0.05,139.9,0)" xlink:href="#bt"/><use transform="matrix(0.05,0,0,0.05,145.85,0)" xlink:href="#bn"/></g><g id="am"><use transform="matrix(0.05,0,0,0.05,0,0)" xlink:href="#aR"/><use transform="matrix(0.05,0,0,0.05,5,0)" xlink:href="#bg"/><use transform="matrix(0.05,0,0,0.05,14,0)" xlink:href="#aW"/><use transform="matrix(0.05,0,0,0.05,24,0)" xlink:href="#aQ"/></g><g id="an"><use transform="matrix(0.05,0,0,0.05,0,0)" xlink:href="#aK"/><use transform="matrix(0.05,0,0,0.05,12,0)" xlink:href="#aN"/><use transform="matrix(0.05,0,0,0.05,22,0)" xlink:href="#aS"/><use transform="matrix(0.05,0,0,0.05,27.950000000000003,0)" xlink:href="#aZ"/><use transform="matrix(0.05,0,0,0.05,37.95,0)" xlink:href="#aV"/><use transform="matrix(0.05,0,0,0.05,41.900000000000006,0)" xlink:href="#aV"/><use transform="matrix(0.05,0,0,0.05,45.85000000000001,0)" xlink:href="#aQ"/><use transform="matrix(0.05,0,0,0.05,55.85,0)" xlink:href="#ba"/><use transform="matrix(0.05,0,0,0.05,65.85000000000001,0)" xlink:href="#bb"/><use transform="matrix(0.05,0,0,0.05,78.80000000000001,0)" xlink:href="#aZ"/><use transform="matrix(0.05,0,0,0.05,88.80000000000001,0)" xlink:href="#bd"/><use transform="matrix(0.05,0,0,0.05,98.80000000000001,0)" xlink:href="#aS"/><use transform="matrix(0.05,0,0,0.05,104.75,0)" xlink:href="#aX"/><use transform="matrix(0.05,0,0,0.05,113.75,0)" xlink:href="#aQ"/><use transform="matrix(0.05,0,0,0.05,123.75,0)" xlink:href="#aX"/></g><g id="ao"><use transform="matrix(0.05,0,0,0.05,0,0)" xlink:href="#bp"/><use transform="matrix(0.05,0,0,0.05,14,0)" xlink:href="#bq"/><use transform="matrix(0.05,0,0,0.05,24,0)" xlink:href="#br"/><use transform="matrix(0.05,0,0,0.05,27.950000000000003,0)" xlink:href="#aQ"/><use transform="matrix(0.05,0,0,0.05,37.95,0)" xlink:href="#bh"/><use transform="matrix(0.05,0,0,0.05,46.95,0)" xlink:href="#aR"/><use transform="matrix(0.05,0,0,0.05,51.95,0)" xlink:href="#bk"/><use transform="matrix(0.05,0,0,0.05,56.95,0)" xlink:href="#ba"/><use transform="matrix(0.05,0,0,0.05,66.95,0)" xlink:href="#bs"/><use transform="matrix(0.05,0,0,0.05,72.9,0)" xlink:href="#bb"/><use transform="matrix(0.05,0,0,0.05,85.85000000000001,0)" xlink:href="#aZ"/><use transform="matrix(0.05,0,0,0.05,95.85000000000001,0)" xlink:href="#bd"/><use transform="matrix(0.05,0,0,0.05,105.85000000000001,0)" xlink:href="#aS"/><use transform="matrix(0.05,0,0,0.05,111.80000000000001,0)" xlink:href="#aX"/><use transform="matrix(0.05,0,0,0.05,120.80000000000001,0)" xlink:href="#aQ"/><use transform="matrix(0.05,0,0,0.05,130.8,0)" xlink:href="#bt"/></g><g id="ap"><use transform="matrix(0.05,0,0,0.05,0,0)" xlink:href="#aQ"/><use transform="matrix(0.05,0,0,0.05,10,0)" xlink:href="#aN"/><use transform="matrix(0.05,0,0,0.05,20,0)" xlink:href="#aS"/><use transform="matrix(0.05,0,0,0.05,25.950000000000003,0)" xlink:href="#aZ"/><use transform="matrix(0.05,0,0,0.05,35.95,0)" xlink:href="#aV"/><use transform="matrix(0.05,0,0,0.05,39.900000000000006,0)" xlink:href="#aV"/><use transform="matrix(0.05,0,0,0.05,43.85000000000001,0)" xlink:href="#aP"/><use transform="matrix(0.05,0,0,0.05,58.80000000000001,0)" xlink:href="#aQ"/><use transform="matrix(0.05,0,0,0.05,68.80000000000001,0)" xlink:href="#aN"/><use transform="matrix(0.05,0,0,0.05,78.80000000000001,0)" xlink:href="#aR"/><use transform="matrix(0.05,0,0,0.05,83.80000000000001,0)" xlink:href="#bi"/><use transform="matrix(0.05,0,0,0.05,96.75000000000001,0)" xlink:href="#aO"/><use transform="matrix(0.05,0,0,0.05,106.75,0)" xlink:href="#aR"/><use transform="matrix(0.05,0,0,0.05,111.75,0)" xlink:href="#aQ"/></g><path d="M30-248c87 1 191-15 191 75 0 78-77 80-158 76V0H30v-248zm33 125c57 0 124 11 124-50 0-59-68-47-124-48v98" id="bG"/><g id="aq"><use transform="matrix(0.05,0,0,0.05,0,0)" xlink:href="#aZ"/><use transform="matrix(0.05,0,0,0.05,10,0)" xlink:href="#bw"/><use transform="matrix(0.05,0,0,0.05,19,0)" xlink:href="#aQ"/><use transform="matrix(0.05,0,0,0.05,29,0)" xlink:href="#aS"/><use transform="matrix(0.05,0,0,0.05,34.95,0)" xlink:href="#aO"/><use transform="matrix(0.05,0,0,0.05,44.95,0)" xlink:href="#aV"/><use transform="matrix(0.05,0,0,0.05,48.900000000000006,0)" xlink:href="#aV"/><use transform="matrix(0.05,0,0,0.05,52.85,0)" xlink:href="#bG"/><use transform="matrix(0.05,0,0,0.05,64.85000000000001,0)" xlink:href="#aS"/><use transform="matrix(0.05,0,0,0.05,70.80000000000001,0)" xlink:href="#aZ"/><use transform="matrix(0.05,0,0,0.05,80.80000000000001,0)" xlink:href="#aU"/><use transform="matrix(0.05,0,0,0.05,90.80000000000001,0)" xlink:href="#aS"/><use transform="matrix(0.05,0,0,0.05,96.75000000000001,0)" xlink:href="#aQ"/><use transform="matrix(0.05,0,0,0.05,106.75,0)" xlink:href="#aX"/><use transform="matrix(0.05,0,0,0.05,115.75,0)" xlink:href="#aX"/></g><g id="ar"><use transform="matrix(0.05,0,0,0.05,0,0)" xlink:href="#bG"/><use transform="matrix(0.05,0,0,0.05,12,0)" xlink:href="#aS"/><use transform="matrix(0.05,0,0,0.05,17.95,0)" xlink:href="#aZ"/><use transform="matrix(0.05,0,0,0.05,27.950000000000003,0)" xlink:href="#aU"/><use transform="matrix(0.05,0,0,0.05,37.95,0)" xlink:href="#aS"/><use transform="matrix(0.05,0,0,0.05,43.900000000000006,0)" xlink:href="#aQ"/><use transform="matrix(0.05,0,0,0.05,53.900000000000006,0)" xlink:href="#aX"/><use transform="matrix(0.05,0,0,0.05,62.900000000000006,0)" xlink:href="#aX"/></g><g id="as"><use transform="matrix(0.05,0,0,0.05,0,0)" xlink:href="#bx"/><use transform="matrix(0.05,0,0,0.05,10,0)" xlink:href="#bx"/><use transform="matrix(0.05,0,0,0.05,20,0)" xlink:href="#bx"/><use transform="matrix(0.05,0,0,0.05,30,0)" xlink:href="#bG"/><use transform="matrix(0.05,0,0,0.05,42,0)" xlink:href="#aS"/><use transform="matrix(0.05,0,0,0.05,47.95,0)" xlink:href="#aZ"/><use transform="matrix(0.05,0,0,0.05,57.95,0)" xlink:href="#aU"/><use transform="matrix(0.05,0,0,0.05,67.95,0)" xlink:href="#aS"/><use transform="matrix(0.05,0,0,0.05,73.9,0)" xlink:href="#aQ"/><use transform="matrix(0.05,0,0,0.05,83.9,0)" xlink:href="#aX"/><use transform="matrix(0.05,0,0,0.05,92.9,0)" xlink:href="#aX"/></g><g id="at"><use transform="matrix(0.05,0,0,0.05,0,0)" xlink:href="#bh"/><use transform="matrix(0.05,0,0,0.05,9,0)" xlink:href="#aZ"/><use transform="matrix(0.05,0,0,0.05,19,0)" xlink:href="#aP"/><use transform="matrix(0.05,0,0,0.05,33.95,0)" xlink:href="#aW"/><use transform="matrix(0.05,0,0,0.05,43.95,0)" xlink:href="#aV"/><use transform="matrix(0.05,0,0,0.05,47.900000000000006,0)" xlink:href="#aQ"/><use transform="matrix(0.05,0,0,0.05,57.900000000000006,0)" xlink:href="#aR"/><use transform="matrix(0.05,0,0,0.05,62.900000000000006,0)" xlink:href="#aQ"/><use transform="matrix(0.05,0,0,0.05,72.9,0)" xlink:href="#ba"/><use transform="matrix(0.05,0,0,0.05,82.9,0)" xlink:href="#bj"/><use transform="matrix(0.05,0,0,0.05,97.85000000000001,0)" xlink:href="#aZ"/><use transform="matrix(0.05,0,0,0.05,107.85000000000001,0)" xlink:href="#ba"/><use transform="matrix(0.05,0,0,0.05,117.85000000000001,0)" xlink:href="#bd"/><use transform="matrix(0.05,0,0,0.05,127.85000000000001,0)" xlink:href="#aV"/><use transform="matrix(0.05,0,0,0.05,131.8,0)" xlink:href="#aQ"/><use transform="matrix(0.05,0,0,0.05,141.8,0)" xlink:href="#aX"/></g><g id="au"><use transform="matrix(0.05,0,0,0.05,0,0)" xlink:href="#bh"/><use transform="matrix(0.05,0,0,0.05,9,0)" xlink:href="#aZ"/><use transform="matrix(0.05,0,0,0.05,19,0)" xlink:href="#aP"/><use transform="matrix(0.05,0,0,0.05,33.95,0)" xlink:href="#aW"/><use transform="matrix(0.05,0,0,0.05,43.95,0)" xlink:href="#aV"/><use transform="matrix(0.05,0,0,0.05,47.900000000000006,0)" xlink:href="#aQ"/><use transform="matrix(0.05,0,0,0.05,57.900000000000006,0)" xlink:href="#aR"/><use transform="matrix(0.05,0,0,0.05,62.900000000000006,0)" xlink:href="#aQ"/><use transform="matrix(0.05,0,0,0.05,72.9,0)" xlink:href="#ba"/><use transform="matrix(0.05,0,0,0.05,82.9,0)" xlink:href="#bz"/><use transform="matrix(0.05,0,0,0.05,92.9,0)" xlink:href="#aQ"/><use transform="matrix(0.05,0,0,0.05,102.9,0)" xlink:href="#aX"/><use transform="matrix(0.05,0,0,0.05,111.9,0)" xlink:href="#aX"/><use transform="matrix(0.05,0,0,0.05,120.9,0)" xlink:href="#aZ"/><use transform="matrix(0.05,0,0,0.05,130.9,0)" xlink:href="#aN"/><use transform="matrix(0.05,0,0,0.05,140.9,0)" xlink:href="#aX"/></g><g id="av"><use transform="matrix(0.05,0,0,0.05,0,0)" xlink:href="#aV"/><use transform="matrix(0.05,0,0,0.05,3.95,0)" xlink:href="#aO"/><use transform="matrix(0.05,0,0,0.05,13.949999999999998,0)" xlink:href="#aX"/><use transform="matrix(0.05,0,0,0.05,22.95,0)" xlink:href="#aR"/><use transform="matrix(0.05,0,0,0.05,27.950000000000003,0)" xlink:href="#aI"/><use transform="matrix(0.05,0,0,0.05,40.9,0)" xlink:href="#aW"/><use transform="matrix(0.05,0,0,0.05,50.9,0)" xlink:href="#ba"/><use transform="matrix(0.05,0,0,0.05,60.900000000000006,0)" xlink:href="#aO"/><use transform="matrix(0.05,0,0,0.05,70.9,0)" xlink:href="#aR"/><use transform="matrix(0.05,0,0,0.05,75.9,0)" xlink:href="#aQ"/><use transform="matrix(0.05,0,0,0.05,85.9,0)" xlink:href="#ba"/></g><g id="aw"><use transform="matrix(0.05,0,0,0.05,0,0)" xlink:href="#aT"/><use transform="matrix(0.05,0,0,0.05,3.95,0)" xlink:href="#aX"/><use transform="matrix(0.05,0,0,0.05,12.949999999999998,0)" xlink:href="#by"/><use transform="matrix(0.05,0,0,0.05,22.95,0)" xlink:href="#aO"/></g><g id="ax"><use transform="matrix(0.05,0,0,0.05,0,0)" xlink:href="#aS"/><use transform="matrix(0.05,0,0,0.05,5.95,0)" xlink:href="#aQ"/><use transform="matrix(0.05,0,0,0.05,15.949999999999998,0)" xlink:href="#bh"/><use transform="matrix(0.05,0,0,0.05,24.95,0)" xlink:href="#aQ"/><use transform="matrix(0.05,0,0,0.05,34.95,0)" xlink:href="#aT"/><use transform="matrix(0.05,0,0,0.05,38.900000000000006,0)" xlink:href="#bw"/><use transform="matrix(0.05,0,0,0.05,47.900000000000006,0)" xlink:href="#aQ"/><use transform="matrix(0.05,0,0,0.05,57.900000000000006,0)" xlink:href="#aX"/></g><g id="ay"><use transform="matrix(0.05,0,0,0.05,0,0)" xlink:href="#bh"/><use transform="matrix(0.05,0,0,0.05,9,0)" xlink:href="#aS"/><use transform="matrix(0.05,0,0,0.05,14.949999999999998,0)" xlink:href="#aQ"/><use transform="matrix(0.05,0,0,0.05,24.95,0)" xlink:href="#aO"/><use transform="matrix(0.05,0,0,0.05,34.95,0)" xlink:href="#aR"/><use transform="matrix(0.05,0,0,0.05,39.95,0)" xlink:href="#aQ"/><use transform="matrix(0.05,0,0,0.05,49.95,0)" xlink:href="#aX"/></g><g id="az"><use transform="matrix(0.07407407407407408,0,0,0.07407407407407408,0,0)" xlink:href="#bc"/><use transform="matrix(0.07407407407407408,0,0,0.07407407407407408,14.814814814814817,0)" xlink:href="#aO"/><use transform="matrix(0.07407407407407408,0,0,0.07407407407407408,29.629629629629633,0)" xlink:href="#aX"/><path d="M-1.33 1.85H44.3V3.8H-1.33z"/></g><g id="aA"><use transform="matrix(0.05,0,0,0.05,0,0)" xlink:href="#aY"/><use transform="matrix(0.05,0,0,0.05,12.950000000000001,0)" xlink:href="#aS"/><use transform="matrix(0.05,0,0,0.05,18.900000000000002,0)" xlink:href="#aT"/><use transform="matrix(0.05,0,0,0.05,22.85,0)" xlink:href="#aR"/><use transform="matrix(0.05,0,0,0.05,27.85,0)" xlink:href="#aQ"/><use transform="matrix(0.05,0,0,0.05,37.85,0)" xlink:href="#aX"/></g><g id="aB"><use transform="matrix(0.05,0,0,0.05,0,0)" xlink:href="#aW"/><use transform="matrix(0.05,0,0,0.05,10,0)" xlink:href="#aO"/><use transform="matrix(0.05,0,0,0.05,20,0)" xlink:href="#aS"/><use transform="matrix(0.05,0,0,0.05,25.950000000000003,0)" xlink:href="#aR"/><use transform="matrix(0.05,0,0,0.05,30.950000000000003,0)" xlink:href="#aT"/><use transform="matrix(0.05,0,0,0.05,34.9,0)" xlink:href="#bh"/><use transform="matrix(0.05,0,0,0.05,43.9,0)" xlink:href="#aT"/><use transform="matrix(0.05,0,0,0.05,47.85,0)" xlink:href="#aW"/><use transform="matrix(0.05,0,0,0.05,57.85,0)" xlink:href="#aO"/><use transform="matrix(0.05,0,0,0.05,67.85,0)" xlink:href="#aR"/><use transform="matrix(0.05,0,0,0.05,72.85,0)" xlink:href="#aQ"/><use transform="matrix(0.05,0,0,0.05,82.85,0)" xlink:href="#aX"/></g><g id="aC"><use transform="matrix(0.05,0,0,0.05,0,0)" xlink:href="#aP"/><use transform="matrix(0.05,0,0,0.05,14.950000000000001,0)" xlink:href="#aO"/><use transform="matrix(0.05,0,0,0.05,24.950000000000003,0)" xlink:href="#be"/><use transform="matrix(0.05,0,0,0.05,33.95,0)" xlink:href="#aQ"/><use transform="matrix(0.05,0,0,0.05,43.95,0)" xlink:href="#aX"/></g><g id="aD"><use transform="matrix(0.05,0,0,0.05,0,0)" xlink:href="#aX"/><use transform="matrix(0.05,0,0,0.05,9,0)" xlink:href="#aQ"/><use transform="matrix(0.05,0,0,0.05,19,0)" xlink:href="#aN"/><use transform="matrix(0.05,0,0,0.05,29,0)" xlink:href="#ba"/><use transform="matrix(0.05,0,0,0.05,39,0)" xlink:href="#aX"/></g><g id="aE"><use transform="matrix(0.05,0,0,0.05,0,0)" xlink:href="#aQ"/><use transform="matrix(0.05,0,0,0.05,10,0)" xlink:href="#aN"/><use transform="matrix(0.05,0,0,0.05,20,0)" xlink:href="#aS"/><use transform="matrix(0.05,0,0,0.05,25.950000000000003,0)" xlink:href="#aZ"/><use transform="matrix(0.05,0,0,0.05,35.95,0)" xlink:href="#aV"/><use transform="matrix(0.05,0,0,0.05,39.900000000000006,0)" xlink:href="#aV"/><use transform="matrix(0.05,0,0,0.05,43.85000000000001,0)" xlink:href="#aX"/></g><g id="aF"><use transform="matrix(0.05,0,0,0.05,0,0)" xlink:href="#aN"/><use transform="matrix(0.05,0,0,0.05,10,0)" xlink:href="#aZ"/><use transform="matrix(0.05,0,0,0.05,20,0)" xlink:href="#aR"/><use transform="matrix(0.05,0,0,0.05,25,0)" xlink:href="#aT"/><use transform="matrix(0.05,0,0,0.05,28.950000000000003,0)" xlink:href="#aM"/><use transform="matrix(0.05,0,0,0.05,33.95,0)" xlink:href="#aT"/><use transform="matrix(0.05,0,0,0.05,37.900000000000006,0)" xlink:href="#aQ"/><use transform="matrix(0.05,0,0,0.05,47.900000000000006,0)" xlink:href="#ba"/></g><g id="aG"><use transform="matrix(0.05,0,0,0.05,0,0)" xlink:href="#aR"/><use transform="matrix(0.05,0,0,0.05,5,0)" xlink:href="#aQ"/><use transform="matrix(0.05,0,0,0.05,15,0)" xlink:href="#aO"/><use transform="matrix(0.05,0,0,0.05,25,0)" xlink:href="#bh"/><use transform="matrix(0.05,0,0,0.05,34,0)" xlink:href="#bc"/><use transform="matrix(0.05,0,0,0.05,44,0)" xlink:href="#aQ"/><use transform="matrix(0.05,0,0,0.05,54,0)" xlink:href="#aX"/></g></defs></g></svg>